  0
SECTION
  2
HEADER
  9
$EXTMIN
 10
-0.377000
 20
-0.214000
  9
$EXTMAX
 10
1.305000
 20
0.805000
  9
$LIMMIN
 10
-0.377000
 20
-0.214000
  9
$LIMMAX
 10
1.305000
 20
0.805000
  9
$FILLMODE
 70
  1
  0
ENDSEC
  0
SECTION
  2
TABLES
  0
TABLE
  2
LTYPE
 70
  1
  0
LTYPE
  2
CONTINUOUS
 70
 64
  3
Solid line
 72
 65
 73
  0
 40
0.0
  0
ENDTAB
  0
TABLE
  2
LAYER
 70
 1
  0
LAYER
  2
0
 70
  0
 62
7
  6
CONTINUOUS
  0
LAYER
  2
gg1
 70
  0
 62
1
  6
CONTINUOUS
  0
ENDTAB
  0
TABLE
  2
STYLE
 70
  1
  0
STYLE
  2
STANDARD
 70
  0
 40
0.0
 41
1.0
 50
0.0
 71
  0
 42
0.2
  3
txt
  4

  0
ENDTAB
  0
ENDSEC
  0
SECTION
  2
BLOCKS
  0
BLOCK
  8
0
  2
D10
 70
64
 10
0.0
 20
0.0
  3
D10
  0
CIRCLE
  8
0
 10
0.000000
 20
0.000000
 40
0.005000
 0
ENDBLK
  8
0
  0
BLOCK
  8
0
  2
D11
 70
64
 10
0.0
 20
0.0
  3
D11
  0
CIRCLE
  8
0
 10
0.000000
 20
0.000000
 40
0.002500
 0
ENDBLK
  8
0
  0
BLOCK
  8
0
  2
D12
 70
64
 10
0.0
 20
0.0
  3
D12
  0
CIRCLE
  8
0
 10
0.000000
 20
0.000000
 40
0.003000
 0
ENDBLK
  8
0
  0
BLOCK
  8
0
  2
D13
 70
64
 10
0.0
 20
0.0
  3
D13
  0
CIRCLE
  8
0
 10
0.000000
 20
0.000000
 40
0.001000
 0
ENDBLK
  8
0
  0
ENDSEC
  0
SECTION
  2
ENTITIES
  0
POLYLINE
  8
gg1
 62
1
 40
0.000000
 41
0.000000
 66
  1
  0
VERTEX
  8
gg1
 10
1.300000
 20
-0.185000
  0
VERTEX
  8
gg1
 10
1.300000
 20
-0.027500
  0
SEQEND
  8
gg1
  0
POLYLINE
  8
gg1
 62
1
 40
0.000000
 41
0.000000
 66
  1
  0
VERTEX
  8
gg1
 10
0.000000
 20
-0.185000
  0
VERTEX
  8
gg1
 10
0.000000
 20
-0.027500
  0
SEQEND
  8
gg1
  0
POLYLINE
  8
gg1
 62
1
 40
0.000000
 41
0.000000
 66
  1
  0
VERTEX
  8
gg1
 10
0.829900
 20
-0.175000
  0
VERTEX
  8
gg1
 10
1.300000
 20
-0.175000
  0
SEQEND
  8
gg1
  0
POLYLINE
  8
gg1
 62
1
 40
0.000000
 41
0.000000
 66
  1
  0
VERTEX
  8
gg1
 10
0.000000
 20
-0.175000
  0
VERTEX
  8
gg1
 10
0.438100
 20
-0.175000
  0
SEQEND
  8
gg1
  0
POLYLINE
  8
gg1
 62
1
 40
0.000000
 41
0.000000
 66
  1
  0
VERTEX
  8
gg1
 10
1.240000
 20
-0.155000
  0
VERTEX
  8
gg1
 10
1.300000
 20
-0.175000
  0
SEQEND
  8
gg1
  0
POLYLINE
  8
gg1
 62
1
 40
0.000000
 41
0.000000
 66
  1
  0
VERTEX
  8
gg1
 10
1.240000
 20
-0.195000
  0
VERTEX
  8
gg1
 10
1.300000
 20
-0.175000
  0
SEQEND
  8
gg1
  0
POLYLINE
  8
gg1
 62
1
 40
0.000000
 41
0.000000
 66
  1
  0
VERTEX
  8
gg1
 10
0.000000
 20
-0.175000
  0
VERTEX
  8
gg1
 10
0.060000
 20
-0.195000
  0
SEQEND
  8
gg1
  0
POLYLINE
  8
gg1
 62
1
 40
0.000000
 41
0.000000
 66
  1
  0
VERTEX
  8
gg1
 10
0.000000
 20
-0.175000
  0
VERTEX
  8
gg1
 10
0.060000
 20
-0.155000
  0
SEQEND
  8
gg1
  0
POLYLINE
  8
gg1
 62
1
 40
0.000000
 41
0.000000
 66
  1
  0
VERTEX
  8
gg1
 10
-0.360000
 20
0.800000
  0
VERTEX
  8
gg1
 10
-0.027500
 20
0.800000
  0
SEQEND
  8
gg1
  0
POLYLINE
  8
gg1
 62
1
 40
0.000000
 41
0.000000
 66
  1
  0
VERTEX
  8
gg1
 10
-0.360000
 20
0.000000
  0
VERTEX
  8
gg1
 10
-0.027500
 20
0.000000
  0
SEQEND
  8
gg1
  0
POLYLINE
  8
gg1
 62
1
 40
0.000000
 41
0.000000
 66
  1
  0
VERTEX
  8
gg1
 10
-0.350000
 20
0.554900
  0
VERTEX
  8
gg1
 10
-0.350000
 20
0.800000
  0
SEQEND
  8
gg1
  0
POLYLINE
  8
gg1
 62
1
 40
0.000000
 41
0.000000
 66
  1
  0
VERTEX
  8
gg1
 10
-0.350000
 20
0.000000
  0
VERTEX
  8
gg1
 10
-0.350000
 20
0.213000
  0
SEQEND
  8
gg1
  0
POLYLINE
  8
gg1
 62
1
 40
0.000000
 41
0.000000
 66
  1
  0
VERTEX
  8
gg1
 10
-0.370000
 20
0.740000
  0
VERTEX
  8
gg1
 10
-0.350000
 20
0.800000
  0
VERTEX
  8
gg1
 10
-0.330000
 20
0.740000
  0
SEQEND
  8
gg1
  0
POLYLINE
  8
gg1
 62
1
 40
0.000000
 41
0.000000
 66
  1
  0
VERTEX
  8
gg1
 10
-0.350000
 20
0.000000
  0
VERTEX
  8
gg1
 10
-0.330000
 20
0.060000
  0
SEQEND
  8
gg1
  0
POLYLINE
  8
gg1
 62
1
 40
0.000000
 41
0.000000
 66
  1
  0
VERTEX
  8
gg1
 10
-0.370000
 20
0.060000
  0
VERTEX
  8
gg1
 10
-0.350000
 20
0.000000
  0
SEQEND
  8
gg1
  0
POLYLINE
  8
gg1
 62
1
 40
0.000000
 41
0.000000
 66
  1
  0
VERTEX
  8
gg1
 10
0.000000
 20
0.000000
  0
VERTEX
  8
gg1
 10
1.300000
 20
0.000000
  0
SEQEND
  8
gg1
  0
POLYLINE
  8
gg1
 62
1
 40
0.000000
 41
0.000000
 66
  1
  0
VERTEX
  8
gg1
 10
0.000000
 20
0.000000
  0
VERTEX
  8
gg1
 10
0.000000
 20
0.800000
  0
VERTEX
  8
gg1
 10
1.300000
 20
0.800000
  0
SEQEND
  8
gg1
  0
POLYLINE
  8
gg1
 62
1
 40
0.000000
 41
0.000000
 66
  1
  0
VERTEX
  8
gg1
 10
1.300000
 20
0.000000
  0
VERTEX
  8
gg1
 10
1.300000
 20
0.800000
  0
SEQEND
  8
gg1
  0
POLYLINE
  8
gg1
 62
1
 40
0.000000
 41
0.000000
 66
  1
  0
VERTEX
  8
gg1
 10
0.454100
 20
-0.211000
  0
VERTEX
  8
gg1
 10
0.474100
 20
-0.211000
  0
VERTEX
  8
gg1
 10
0.464100
 20
-0.211000
  0
VERTEX
  8
gg1
 10
0.464100
 20
-0.151000
  0
VERTEX
  8
gg1
 10
0.454100
 20
-0.161000
  0
SEQEND
  8
gg1
  0
POLYLINE
  8
gg1
 62
1
 40
0.000000
 41
0.000000
 66
  1
  0
VERTEX
  8
gg1
 10
0.504000
 20
-0.161000
  0
VERTEX
  8
gg1
 10
0.514000
 20
-0.151000
  0
VERTEX
  8
gg1
 10
0.534000
 20
-0.151000
  0
VERTEX
  8
gg1
 10
0.544000
 20
-0.161000
  0
VERTEX
  8
gg1
 10
0.544000
 20
-0.171000
  0
VERTEX
  8
gg1
 10
0.534000
 20
-0.181000
  0
VERTEX
  8
gg1
 10
0.524000
 20
-0.181000
  0
VERTEX
  8
gg1
 10
0.534000
 20
-0.181000
  0
VERTEX
  8
gg1
 10
0.544000
 20
-0.191000
  0
VERTEX
  8
gg1
 10
0.544000
 20
-0.201000
  0
VERTEX
  8
gg1
 10
0.534000
 20
-0.211000
  0
VERTEX
  8
gg1
 10
0.514000
 20
-0.211000
  0
VERTEX
  8
gg1
 10
0.504000
 20
-0.201000
  0
SEQEND
  8
gg1
  0
POLYLINE
  8
gg1
 62
1
 40
0.000000
 41
0.000000
 66
  1
  0
VERTEX
  8
gg1
 10
0.564000
 20
-0.161000
  0
VERTEX
  8
gg1
 10
0.574000
 20
-0.151000
  0
VERTEX
  8
gg1
 10
0.594000
 20
-0.151000
  0
VERTEX
  8
gg1
 10
0.604000
 20
-0.161000
  0
VERTEX
  8
gg1
 10
0.604000
 20
-0.201000
  0
VERTEX
  8
gg1
 10
0.594000
 20
-0.211000
  0
VERTEX
  8
gg1
 10
0.574000
 20
-0.211000
  0
VERTEX
  8
gg1
 10
0.564000
 20
-0.201000
  0
VERTEX
  8
gg1
 10
0.564000
 20
-0.161000
  0
SEQEND
  8
gg1
  0
POLYLINE
  8
gg1
 62
1
 40
0.000000
 41
0.000000
 66
  1
  0
VERTEX
  8
gg1
 10
0.624000
 20
-0.161000
  0
VERTEX
  8
gg1
 10
0.634000
 20
-0.151000
  0
VERTEX
  8
gg1
 10
0.654000
 20
-0.151000
  0
VERTEX
  8
gg1
 10
0.664000
 20
-0.161000
  0
VERTEX
  8
gg1
 10
0.664000
 20
-0.201000
  0
VERTEX
  8
gg1
 10
0.654000
 20
-0.211000
  0
VERTEX
  8
gg1
 10
0.634000
 20
-0.211000
  0
VERTEX
  8
gg1
 10
0.624000
 20
-0.201000
  0
VERTEX
  8
gg1
 10
0.624000
 20
-0.161000
  0
SEQEND
  8
gg1
  0
POLYLINE
  8
gg1
 62
1
 40
0.000000
 41
0.000000
 66
  1
  0
VERTEX
  8
gg1
 10
0.684000
 20
-0.211000
  0
VERTEX
  8
gg1
 10
0.684000
 20
-0.171000
  0
VERTEX
  8
gg1
 10
0.694000
 20
-0.171000
  0
VERTEX
  8
gg1
 10
0.704000
 20
-0.181000
  0
VERTEX
  8
gg1
 10
0.704000
 20
-0.211000
  0
VERTEX
  8
gg1
 10
0.704000
 20
-0.181000
  0
VERTEX
  8
gg1
 10
0.714000
 20
-0.171000
  0
VERTEX
  8
gg1
 10
0.724000
 20
-0.181000
  0
VERTEX
  8
gg1
 10
0.724000
 20
-0.211000
  0
SEQEND
  8
gg1
  0
POLYLINE
  8
gg1
 62
1
 40
0.000000
 41
0.000000
 66
  1
  0
VERTEX
  8
gg1
 10
0.744000
 20
-0.211000
  0
VERTEX
  8
gg1
 10
0.764000
 20
-0.211000
  0
VERTEX
  8
gg1
 10
0.754000
 20
-0.211000
  0
VERTEX
  8
gg1
 10
0.754000
 20
-0.171000
  0
VERTEX
  8
gg1
 10
0.744000
 20
-0.171000
  0
SEQEND
  8
gg1
  0
POLYLINE
  8
gg1
 62
1
 40
0.000000
 41
0.000000
 66
  1
  0
VERTEX
  8
gg1
 10
0.793900
 20
-0.211000
  0
VERTEX
  8
gg1
 10
0.813900
 20
-0.211000
  0
VERTEX
  8
gg1
 10
0.803900
 20
-0.211000
  0
VERTEX
  8
gg1
 10
0.803900
 20
-0.151000
  0
VERTEX
  8
gg1
 10
0.793900
 20
-0.151000
  0
SEQEND
  8
gg1
  0
POLYLINE
  8
gg1
 62
1
 40
0.000000
 41
0.000000
 66
  1
  0
VERTEX
  8
gg1
 10
-0.364000
 20
0.229000
  0
VERTEX
  8
gg1
 10
-0.374000
 20
0.239000
  0
VERTEX
  8
gg1
 10
-0.374000
 20
0.259000
  0
VERTEX
  8
gg1
 10
-0.364000
 20
0.269000
  0
VERTEX
  8
gg1
 10
-0.354000
 20
0.269000
  0
VERTEX
  8
gg1
 10
-0.344000
 20
0.259000
  0
VERTEX
  8
gg1
 10
-0.334000
 20
0.269000
  0
VERTEX
  8
gg1
 10
-0.324000
 20
0.269000
  0
VERTEX
  8
gg1
 10
-0.314000
 20
0.259000
  0
VERTEX
  8
gg1
 10
-0.314000
 20
0.239000
  0
VERTEX
  8
gg1
 10
-0.324000
 20
0.229000
  0
VERTEX
  8
gg1
 10
-0.334000
 20
0.229000
  0
VERTEX
  8
gg1
 10
-0.344000
 20
0.239000
  0
VERTEX
  8
gg1
 10
-0.354000
 20
0.229000
  0
VERTEX
  8
gg1
 10
-0.364000
 20
0.229000
  0
SEQEND
  8
gg1
  0
POLYLINE
  8
gg1
 62
1
 40
0.000000
 41
0.000000
 66
  1
  0
VERTEX
  8
gg1
 10
-0.344000
 20
0.239000
  0
VERTEX
  8
gg1
 10
-0.344000
 20
0.259000
  0
SEQEND
  8
gg1
  0
POLYLINE
  8
gg1
 62
1
 40
0.000000
 41
0.000000
 66
  1
  0
VERTEX
  8
gg1
 10
-0.364000
 20
0.289000
  0
VERTEX
  8
gg1
 10
-0.374000
 20
0.299000
  0
VERTEX
  8
gg1
 10
-0.374000
 20
0.319000
  0
VERTEX
  8
gg1
 10
-0.364000
 20
0.329000
  0
VERTEX
  8
gg1
 10
-0.324000
 20
0.329000
  0
VERTEX
  8
gg1
 10
-0.314000
 20
0.319000
  0
VERTEX
  8
gg1
 10
-0.314000
 20
0.299000
  0
VERTEX
  8
gg1
 10
-0.324000
 20
0.289000
  0
VERTEX
  8
gg1
 10
-0.364000
 20
0.289000
  0
SEQEND
  8
gg1
  0
POLYLINE
  8
gg1
 62
1
 40
0.000000
 41
0.000000
 66
  1
  0
VERTEX
  8
gg1
 10
-0.364000
 20
0.349000
  0
VERTEX
  8
gg1
 10
-0.374000
 20
0.359000
  0
VERTEX
  8
gg1
 10
-0.374000
 20
0.379000
  0
VERTEX
  8
gg1
 10
-0.364000
 20
0.389000
  0
VERTEX
  8
gg1
 10
-0.324000
 20
0.389000
  0
VERTEX
  8
gg1
 10
-0.314000
 20
0.379000
  0
VERTEX
  8
gg1
 10
-0.314000
 20
0.359000
  0
VERTEX
  8
gg1
 10
-0.324000
 20
0.349000
  0
VERTEX
  8
gg1
 10
-0.364000
 20
0.349000
  0
SEQEND
  8
gg1
  0
POLYLINE
  8
gg1
 62
1
 40
0.000000
 41
0.000000
 66
  1
  0
VERTEX
  8
gg1
 10
-0.314000
 20
0.409000
  0
VERTEX
  8
gg1
 10
-0.354000
 20
0.409000
  0
VERTEX
  8
gg1
 10
-0.354000
 20
0.419000
  0
VERTEX
  8
gg1
 10
-0.344000
 20
0.429000
  0
VERTEX
  8
gg1
 10
-0.314000
 20
0.429000
  0
VERTEX
  8
gg1
 10
-0.344000
 20
0.429000
  0
VERTEX
  8
gg1
 10
-0.354000
 20
0.439000
  0
VERTEX
  8
gg1
 10
-0.344000
 20
0.449000
  0
VERTEX
  8
gg1
 10
-0.314000
 20
0.449000
  0
SEQEND
  8
gg1
  0
POLYLINE
  8
gg1
 62
1
 40
0.000000
 41
0.000000
 66
  1
  0
VERTEX
  8
gg1
 10
-0.314000
 20
0.469000
  0
VERTEX
  8
gg1
 10
-0.314000
 20
0.489000
  0
VERTEX
  8
gg1
 10
-0.314000
 20
0.479000
  0
VERTEX
  8
gg1
 10
-0.354000
 20
0.479000
  0
VERTEX
  8
gg1
 10
-0.354000
 20
0.469000
  0
SEQEND
  8
gg1
  0
POLYLINE
  8
gg1
 62
1
 40
0.000000
 41
0.000000
 66
  1
  0
VERTEX
  8
gg1
 10
-0.314000
 20
0.519000
  0
VERTEX
  8
gg1
 10
-0.314000
 20
0.539000
  0
VERTEX
  8
gg1
 10
-0.314000
 20
0.529000
  0
VERTEX
  8
gg1
 10
-0.374000
 20
0.529000
  0
VERTEX
  8
gg1
 10
-0.374000
 20
0.519000
  0
SEQEND
  8
gg1
  0
POLYLINE
  8
gg1
 62
1
 40
0.000000
 41
0.000000
 66
  1
  0
VERTEX
  8
gg1
 10
0.907000
 20
0.710000
  0
VERTEX
  8
gg1
 10
0.993000
 20
0.710000
  0
SEQEND
  8
gg1
  0
POLYLINE
  8
gg1
 62
1
 40
0.000000
 41
0.000000
 66
  1
  0
VERTEX
  8
gg1
 10
0.950000
 20
0.667000
  0
VERTEX
  8
gg1
 10
0.950000
 20
0.753000
  0
SEQEND
  8
gg1
  0
POLYLINE
  8
gg1
 62
1
 40
0.000000
 41
0.000000
 66
  1
  0
VERTEX
  8
gg1
 10
0.282000
 20
0.090000
  0
VERTEX
  8
gg1
 10
0.368000
 20
0.090000
  0
SEQEND
  8
gg1
  0
POLYLINE
  8
gg1
 62
1
 40
0.000000
 41
0.000000
 66
  1
  0
VERTEX
  8
gg1
 10
0.325000
 20
0.047000
  0
VERTEX
  8
gg1
 10
0.325000
 20
0.133000
  0
SEQEND
  8
gg1
  0
POLYLINE
  8
gg1
 62
1
 40
0.000000
 41
0.000000
 66
  1
  0
VERTEX
  8
gg1
 10
0.661800
 20
0.750000
  0
VERTEX
  8
gg1
 10
0.701800
 20
0.750000
  0
SEQEND
  8
gg1
  0
POLYLINE
  8
gg1
 62
1
 40
0.000000
 41
0.000000
 66
  1
  0
VERTEX
  8
gg1
 10
0.681900
 20
0.730000
  0
VERTEX
  8
gg1
 10
0.681900
 20
0.770000
  0
SEQEND
  8
gg1
  0
POLYLINE
  8
gg1
 62
1
 40
0.000000
 41
0.000000
 66
  1
  0
VERTEX
  8
gg1
 10
0.030000
 20
0.450000
  0
VERTEX
  8
gg1
 10
0.070000
 20
0.450000
  0
SEQEND
  8
gg1
  0
POLYLINE
  8
gg1
 62
1
 40
0.000000
 41
0.000000
 66
  1
  0
VERTEX
  8
gg1
 10
0.050000
 20
0.430000
  0
VERTEX
  8
gg1
 10
0.050000
 20
0.470000
  0
SEQEND
  8
gg1
  0
POLYLINE
  8
gg1
 62
1
 40
0.000000
 41
0.000000
 66
  1
  0
VERTEX
  8
gg1
 10
0.030000
 20
0.350000
  0
VERTEX
  8
gg1
 10
0.070000
 20
0.350000
  0
SEQEND
  8
gg1
  0
POLYLINE
  8
gg1
 62
1
 40
0.000000
 41
0.000000
 66
  1
  0
VERTEX
  8
gg1
 10
0.050000
 20
0.330000
  0
VERTEX
  8
gg1
 10
0.050000
 20
0.370000
  0
SEQEND
  8
gg1
  0
POLYLINE
  8
gg1
 62
1
 40
0.000000
 41
0.000000
 66
  1
  0
VERTEX
  8
gg1
 10
0.030000
 20
0.250000
  0
VERTEX
  8
gg1
 10
0.070000
 20
0.250000
  0
SEQEND
  8
gg1
  0
POLYLINE
  8
gg1
 62
1
 40
0.000000
 41
0.000000
 66
  1
  0
VERTEX
  8
gg1
 10
0.050000
 20
0.230000
  0
VERTEX
  8
gg1
 10
0.050000
 20
0.270000
  0
SEQEND
  8
gg1
  0
POLYLINE
  8
gg1
 62
1
 40
0.000000
 41
0.000000
 66
  1
  0
VERTEX
  8
gg1
 10
0.030000
 20
0.150000
  0
VERTEX
  8
gg1
 10
0.070000
 20
0.150000
  0
SEQEND
  8
gg1
  0
POLYLINE
  8
gg1
 62
1
 40
0.000000
 41
0.000000
 66
  1
  0
VERTEX
  8
gg1
 10
0.050000
 20
0.130000
  0
VERTEX
  8
gg1
 10
0.050000
 20
0.170000
  0
SEQEND
  8
gg1
  0
POLYLINE
  8
gg1
 62
1
 40
0.000000
 41
0.000000
 66
  1
  0
VERTEX
  8
gg1
 10
0.030000
 20
0.050000
  0
VERTEX
  8
gg1
 10
0.070000
 20
0.050000
  0
SEQEND
  8
gg1
  0
POLYLINE
  8
gg1
 62
1
 40
0.000000
 41
0.000000
 66
  1
  0
VERTEX
  8
gg1
 10
0.050000
 20
0.030000
  0
VERTEX
  8
gg1
 10
0.050000
 20
0.070000
  0
SEQEND
  8
gg1
  0
POLYLINE
  8
gg1
 62
1
 40
0.000000
 41
0.000000
 66
  1
  0
VERTEX
  8
gg1
 10
0.030000
 20
0.550000
  0
VERTEX
  8
gg1
 10
0.070000
 20
0.550000
  0
SEQEND
  8
gg1
  0
POLYLINE
  8
gg1
 62
1
 40
0.000000
 41
0.000000
 66
  1
  0
VERTEX
  8
gg1
 10
0.050000
 20
0.530000
  0
VERTEX
  8
gg1
 10
0.050000
 20
0.570000
  0
SEQEND
  8
gg1
  0
POLYLINE
  8
gg1
 62
1
 40
0.000000
 41
0.000000
 66
  1
  0
VERTEX
  8
gg1
 10
0.030000
 20
0.650000
  0
VERTEX
  8
gg1
 10
0.070000
 20
0.650000
  0
SEQEND
  8
gg1
  0
POLYLINE
  8
gg1
 62
1
 40
0.000000
 41
0.000000
 66
  1
  0
VERTEX
  8
gg1
 10
0.050000
 20
0.630000
  0
VERTEX
  8
gg1
 10
0.050000
 20
0.670000
  0
SEQEND
  8
gg1
  0
POLYLINE
  8
gg1
 62
1
 40
0.000000
 41
0.000000
 66
  1
  0
VERTEX
  8
gg1
 10
0.030000
 20
0.750000
  0
VERTEX
  8
gg1
 10
0.070000
 20
0.750000
  0
SEQEND
  8
gg1
  0
POLYLINE
  8
gg1
 62
1
 40
0.000000
 41
0.000000
 66
  1
  0
VERTEX
  8
gg1
 10
0.050000
 20
0.730000
  0
VERTEX
  8
gg1
 10
0.050000
 20
0.770000
  0
SEQEND
  8
gg1
  0
POLYLINE
  8
gg1
 62
1
 40
0.000000
 41
0.000000
 66
  1
  0
VERTEX
  8
gg1
 10
0.230000
 20
0.750000
  0
VERTEX
  8
gg1
 10
0.270000
 20
0.750000
  0
SEQEND
  8
gg1
  0
POLYLINE
  8
gg1
 62
1
 40
0.000000
 41
0.000000
 66
  1
  0
VERTEX
  8
gg1
 10
0.250000
 20
0.730000
  0
VERTEX
  8
gg1
 10
0.250000
 20
0.770000
  0
SEQEND
  8
gg1
  0
POLYLINE
  8
gg1
 62
1
 40
0.000000
 41
0.000000
 66
  1
  0
VERTEX
  8
gg1
 10
0.130000
 20
0.750000
  0
VERTEX
  8
gg1
 10
0.170000
 20
0.750000
  0
SEQEND
  8
gg1
  0
POLYLINE
  8
gg1
 62
1
 40
0.000000
 41
0.000000
 66
  1
  0
VERTEX
  8
gg1
 10
0.150000
 20
0.730000
  0
VERTEX
  8
gg1
 10
0.150000
 20
0.770000
  0
SEQEND
  8
gg1
  0
POLYLINE
  8
gg1
 62
1
 40
0.000000
 41
0.000000
 66
  1
  0
VERTEX
  8
gg1
 10
0.661800
 20
0.085000
  0
VERTEX
  8
gg1
 10
0.701800
 20
0.085000
  0
SEQEND
  8
gg1
  0
POLYLINE
  8
gg1
 62
1
 40
0.000000
 41
0.000000
 66
  1
  0
VERTEX
  8
gg1
 10
0.681900
 20
0.065000
  0
VERTEX
  8
gg1
 10
0.681900
 20
0.105000
  0
SEQEND
  8
gg1
  0
POLYLINE
  8
gg1
 62
1
 40
0.000000
 41
0.000000
 66
  1
  0
VERTEX
  8
gg1
 10
0.465000
 20
0.085000
  0
VERTEX
  8
gg1
 10
0.505000
 20
0.085000
  0
SEQEND
  8
gg1
  0
POLYLINE
  8
gg1
 62
1
 40
0.000000
 41
0.000000
 66
  1
  0
VERTEX
  8
gg1
 10
0.485000
 20
0.065000
  0
VERTEX
  8
gg1
 10
0.485000
 20
0.105000
  0
SEQEND
  8
gg1
  0
POLYLINE
  8
gg1
 62
1
 40
0.000000
 41
0.000000
 66
  1
  0
VERTEX
  8
gg1
 10
0.230000
 20
0.375000
  0
VERTEX
  8
gg1
 10
0.250000
 20
0.375000
  0
SEQEND
  8
gg1
  0
POLYLINE
  8
gg1
 62
1
 40
0.000000
 41
0.000000
 66
  1
  0
VERTEX
  8
gg1
 10
0.240000
 20
0.365000
  0
VERTEX
  8
gg1
 10
0.240000
 20
0.385000
  0
SEQEND
  8
gg1
  0
POLYLINE
  8
gg1
 62
1
 40
0.000000
 41
0.000000
 66
  1
  0
VERTEX
  8
gg1
 10
0.245000
 20
0.565000
  0
VERTEX
  8
gg1
 10
0.265000
 20
0.565000
  0
SEQEND
  8
gg1
  0
POLYLINE
  8
gg1
 62
1
 40
0.000000
 41
0.000000
 66
  1
  0
VERTEX
  8
gg1
 10
0.255000
 20
0.555000
  0
VERTEX
  8
gg1
 10
0.255000
 20
0.575000
  0
SEQEND
  8
gg1
  0
POLYLINE
  8
gg1
 62
1
 40
0.000000
 41
0.000000
 66
  1
  0
VERTEX
  8
gg1
 10
1.167000
 20
0.695300
  0
VERTEX
  8
gg1
 10
1.253000
 20
0.695300
  0
SEQEND
  8
gg1
  0
POLYLINE
  8
gg1
 62
1
 40
0.000000
 41
0.000000
 66
  1
  0
VERTEX
  8
gg1
 10
1.210000
 20
0.652300
  0
VERTEX
  8
gg1
 10
1.210000
 20
0.738300
  0
SEQEND
  8
gg1
  0
POLYLINE
  8
gg1
 62
1
 40
0.000000
 41
0.000000
 66
  1
  0
VERTEX
  8
gg1
 10
1.167000
 20
0.498400
  0
VERTEX
  8
gg1
 10
1.253000
 20
0.498400
  0
SEQEND
  8
gg1
  0
POLYLINE
  8
gg1
 62
1
 40
0.000000
 41
0.000000
 66
  1
  0
VERTEX
  8
gg1
 10
1.210000
 20
0.455400
  0
VERTEX
  8
gg1
 10
1.210000
 20
0.541400
  0
SEQEND
  8
gg1
  0
POLYLINE
  8
gg1
 62
1
 40
0.000000
 41
0.000000
 66
  1
  0
VERTEX
  8
gg1
 10
1.167000
 20
0.104700
  0
VERTEX
  8
gg1
 10
1.253000
 20
0.104700
  0
SEQEND
  8
gg1
  0
POLYLINE
  8
gg1
 62
1
 40
0.000000
 41
0.000000
 66
  1
  0
VERTEX
  8
gg1
 10
1.210000
 20
0.061700
  0
VERTEX
  8
gg1
 10
1.210000
 20
0.147700
  0
SEQEND
  8
gg1
  0
POLYLINE
  8
gg1
 62
1
 40
0.000000
 41
0.000000
 66
  1
  0
VERTEX
  8
gg1
 10
1.167000
 20
0.301600
  0
VERTEX
  8
gg1
 10
1.253000
 20
0.301600
  0
SEQEND
  8
gg1
  0
POLYLINE
  8
gg1
 62
1
 40
0.000000
 41
0.000000
 66
  1
  0
VERTEX
  8
gg1
 10
1.210000
 20
0.258600
  0
VERTEX
  8
gg1
 10
1.210000
 20
0.344600
  0
SEQEND
  8
gg1
  0
POLYLINE
  8
gg1
 62
1
 40
0.000000
 41
0.000000
 66
  1
  0
VERTEX
  8
gg1
 10
1.130000
 20
0.450000
  0
VERTEX
  8
gg1
 10
1.170000
 20
0.450000
  0
SEQEND
  8
gg1
  0
POLYLINE
  8
gg1
 62
1
 40
0.000000
 41
0.000000
 66
  1
  0
VERTEX
  8
gg1
 10
1.150000
 20
0.430000
  0
VERTEX
  8
gg1
 10
1.150000
 20
0.470000
  0
SEQEND
  8
gg1
  0
POLYLINE
  8
gg1
 62
1
 40
0.000000
 41
0.000000
 66
  1
  0
VERTEX
  8
gg1
 10
1.130000
 20
0.350000
  0
VERTEX
  8
gg1
 10
1.170000
 20
0.350000
  0
SEQEND
  8
gg1
  0
POLYLINE
  8
gg1
 62
1
 40
0.000000
 41
0.000000
 66
  1
  0
VERTEX
  8
gg1
 10
1.150000
 20
0.330000
  0
VERTEX
  8
gg1
 10
1.150000
 20
0.370000
  0
SEQEND
  8
gg1
  0
POLYLINE
  8
gg1
 62
1
 40
0.000000
 41
0.000000
 66
  1
  0
VERTEX
  8
gg1
 10
1.130000
 20
0.250000
  0
VERTEX
  8
gg1
 10
1.170000
 20
0.250000
  0
SEQEND
  8
gg1
  0
POLYLINE
  8
gg1
 62
1
 40
0.000000
 41
0.000000
 66
  1
  0
VERTEX
  8
gg1
 10
1.150000
 20
0.230000
  0
VERTEX
  8
gg1
 10
1.150000
 20
0.270000
  0
SEQEND
  8
gg1
  0
POLYLINE
  8
gg1
 62
1
 40
0.000000
 41
0.000000
 66
  1
  0
VERTEX
  8
gg1
 10
1.130000
 20
0.150000
  0
VERTEX
  8
gg1
 10
1.170000
 20
0.150000
  0
SEQEND
  8
gg1
  0
POLYLINE
  8
gg1
 62
1
 40
0.000000
 41
0.000000
 66
  1
  0
VERTEX
  8
gg1
 10
1.150000
 20
0.130000
  0
VERTEX
  8
gg1
 10
1.150000
 20
0.170000
  0
SEQEND
  8
gg1
  0
POLYLINE
  8
gg1
 62
1
 40
0.000000
 41
0.000000
 66
  1
  0
VERTEX
  8
gg1
 10
1.130000
 20
0.050000
  0
VERTEX
  8
gg1
 10
1.170000
 20
0.050000
  0
SEQEND
  8
gg1
  0
POLYLINE
  8
gg1
 62
1
 40
0.000000
 41
0.000000
 66
  1
  0
VERTEX
  8
gg1
 10
1.150000
 20
0.030000
  0
VERTEX
  8
gg1
 10
1.150000
 20
0.070000
  0
SEQEND
  8
gg1
  0
POLYLINE
  8
gg1
 62
1
 40
0.000000
 41
0.000000
 66
  1
  0
VERTEX
  8
gg1
 10
1.130000
 20
0.550000
  0
VERTEX
  8
gg1
 10
1.170000
 20
0.550000
  0
SEQEND
  8
gg1
  0
POLYLINE
  8
gg1
 62
1
 40
0.000000
 41
0.000000
 66
  1
  0
VERTEX
  8
gg1
 10
1.150000
 20
0.530000
  0
VERTEX
  8
gg1
 10
1.150000
 20
0.570000
  0
SEQEND
  8
gg1
  0
POLYLINE
  8
gg1
 62
1
 40
0.000000
 41
0.000000
 66
  1
  0
VERTEX
  8
gg1
 10
1.130000
 20
0.650000
  0
VERTEX
  8
gg1
 10
1.170000
 20
0.650000
  0
SEQEND
  8
gg1
  0
POLYLINE
  8
gg1
 62
1
 40
0.000000
 41
0.000000
 66
  1
  0
VERTEX
  8
gg1
 10
1.150000
 20
0.630000
  0
VERTEX
  8
gg1
 10
1.150000
 20
0.670000
  0
SEQEND
  8
gg1
  0
POLYLINE
  8
gg1
 62
1
 40
0.000000
 41
0.000000
 66
  1
  0
VERTEX
  8
gg1
 10
1.130000
 20
0.750000
  0
VERTEX
  8
gg1
 10
1.170000
 20
0.750000
  0
SEQEND
  8
gg1
  0
POLYLINE
  8
gg1
 62
1
 40
0.000000
 41
0.000000
 66
  1
  0
VERTEX
  8
gg1
 10
1.150000
 20
0.730000
  0
VERTEX
  8
gg1
 10
1.150000
 20
0.770000
  0
SEQEND
  8
gg1
  0
POLYLINE
  8
gg1
 62
1
 40
0.000000
 41
0.000000
 66
  1
  0
VERTEX
  8
gg1
 10
0.572500
 20
0.125000
  0
VERTEX
  8
gg1
 10
0.587500
 20
0.125000
  0
SEQEND
  8
gg1
  0
POLYLINE
  8
gg1
 62
1
 40
0.000000
 41
0.000000
 66
  1
  0
VERTEX
  8
gg1
 10
0.580000
 20
0.117500
  0
VERTEX
  8
gg1
 10
0.580000
 20
0.132500
  0
SEQEND
  8
gg1
  0
POLYLINE
  8
gg1
 62
1
 40
0.000000
 41
0.000000
 66
  1
  0
VERTEX
  8
gg1
 10
0.612500
 20
0.730000
  0
VERTEX
  8
gg1
 10
0.627500
 20
0.730000
  0
SEQEND
  8
gg1
  0
POLYLINE
  8
gg1
 62
1
 40
0.000000
 41
0.000000
 66
  1
  0
VERTEX
  8
gg1
 10
0.620000
 20
0.722500
  0
VERTEX
  8
gg1
 10
0.620000
 20
0.737500
  0
SEQEND
  8
gg1
  0
POLYLINE
  8
gg1
 62
1
 40
0.000000
 41
0.000000
 66
  1
  0
VERTEX
  8
gg1
 10
0.652500
 20
0.140000
  0
VERTEX
  8
gg1
 10
0.667500
 20
0.140000
  0
SEQEND
  8
gg1
  0
POLYLINE
  8
gg1
 62
1
 40
0.000000
 41
0.000000
 66
  1
  0
VERTEX
  8
gg1
 10
0.660000
 20
0.132500
  0
VERTEX
  8
gg1
 10
0.660000
 20
0.147500
  0
SEQEND
  8
gg1
  0
POLYLINE
  8
gg1
 62
1
 40
0.000000
 41
0.000000
 66
  1
  0
VERTEX
  8
gg1
 10
0.312500
 20
0.700000
  0
VERTEX
  8
gg1
 10
0.327500
 20
0.700000
  0
SEQEND
  8
gg1
  0
POLYLINE
  8
gg1
 62
1
 40
0.000000
 41
0.000000
 66
  1
  0
VERTEX
  8
gg1
 10
0.320000
 20
0.692500
  0
VERTEX
  8
gg1
 10
0.320000
 20
0.707500
  0
SEQEND
  8
gg1
  0
POLYLINE
  8
gg1
 62
1
 40
0.000000
 41
0.000000
 66
  1
  0
VERTEX
  8
gg1
 10
0.412500
 20
0.700000
  0
VERTEX
  8
gg1
 10
0.427500
 20
0.700000
  0
SEQEND
  8
gg1
  0
POLYLINE
  8
gg1
 62
1
 40
0.000000
 41
0.000000
 66
  1
  0
VERTEX
  8
gg1
 10
0.420000
 20
0.692500
  0
VERTEX
  8
gg1
 10
0.420000
 20
0.707500
  0
SEQEND
  8
gg1
  0
POLYLINE
  8
gg1
 62
1
 40
0.000000
 41
0.000000
 66
  1
  0
VERTEX
  8
gg1
 10
0.412500
 20
0.760000
  0
VERTEX
  8
gg1
 10
0.427500
 20
0.760000
  0
SEQEND
  8
gg1
  0
POLYLINE
  8
gg1
 62
1
 40
0.000000
 41
0.000000
 66
  1
  0
VERTEX
  8
gg1
 10
0.420000
 20
0.752500
  0
VERTEX
  8
gg1
 10
0.420000
 20
0.767500
  0
SEQEND
  8
gg1
  0
POLYLINE
  8
gg1
 62
1
 40
0.000000
 41
0.000000
 66
  1
  0
VERTEX
  8
gg1
 10
0.512500
 20
0.760000
  0
VERTEX
  8
gg1
 10
0.527500
 20
0.760000
  0
SEQEND
  8
gg1
  0
POLYLINE
  8
gg1
 62
1
 40
0.000000
 41
0.000000
 66
  1
  0
VERTEX
  8
gg1
 10
0.520000
 20
0.752500
  0
VERTEX
  8
gg1
 10
0.520000
 20
0.767500
  0
SEQEND
  8
gg1
  0
POLYLINE
  8
gg1
 62
1
 40
0.000000
 41
0.000000
 66
  1
  0
VERTEX
  8
gg1
 10
0.512500
 20
0.715000
  0
VERTEX
  8
gg1
 10
0.527500
 20
0.715000
  0
SEQEND
  8
gg1
  0
POLYLINE
  8
gg1
 62
1
 40
0.000000
 41
0.000000
 66
  1
  0
VERTEX
  8
gg1
 10
0.520000
 20
0.707500
  0
VERTEX
  8
gg1
 10
0.520000
 20
0.722500
  0
SEQEND
  8
gg1
  0
POLYLINE
  8
gg1
 62
1
 40
0.000000
 41
0.000000
 66
  1
  0
VERTEX
  8
gg1
 10
0.612500
 20
0.760000
  0
VERTEX
  8
gg1
 10
0.627500
 20
0.760000
  0
SEQEND
  8
gg1
  0
POLYLINE
  8
gg1
 62
1
 40
0.000000
 41
0.000000
 66
  1
  0
VERTEX
  8
gg1
 10
0.620000
 20
0.752500
  0
VERTEX
  8
gg1
 10
0.620000
 20
0.767500
  0
SEQEND
  8
gg1
  0
POLYLINE
  8
gg1
 62
1
 40
0.000000
 41
0.000000
 66
  1
  0
VERTEX
  8
gg1
 10
0.417500
 20
0.555000
  0
VERTEX
  8
gg1
 10
0.432500
 20
0.555000
  0
SEQEND
  8
gg1
  0
POLYLINE
  8
gg1
 62
1
 40
0.000000
 41
0.000000
 66
  1
  0
VERTEX
  8
gg1
 10
0.425000
 20
0.547500
  0
VERTEX
  8
gg1
 10
0.425000
 20
0.562500
  0
SEQEND
  8
gg1
  0
POLYLINE
  8
gg1
 62
1
 40
0.000000
 41
0.000000
 66
  1
  0
VERTEX
  8
gg1
 10
0.382500
 20
0.555000
  0
VERTEX
  8
gg1
 10
0.397500
 20
0.555000
  0
SEQEND
  8
gg1
  0
POLYLINE
  8
gg1
 62
1
 40
0.000000
 41
0.000000
 66
  1
  0
VERTEX
  8
gg1
 10
0.390000
 20
0.547500
  0
VERTEX
  8
gg1
 10
0.390000
 20
0.562500
  0
SEQEND
  8
gg1
  0
POLYLINE
  8
gg1
 62
1
 40
0.000000
 41
0.000000
 66
  1
  0
VERTEX
  8
gg1
 10
0.367500
 20
0.590000
  0
VERTEX
  8
gg1
 10
0.382500
 20
0.590000
  0
SEQEND
  8
gg1
  0
POLYLINE
  8
gg1
 62
1
 40
0.000000
 41
0.000000
 66
  1
  0
VERTEX
  8
gg1
 10
0.375000
 20
0.582500
  0
VERTEX
  8
gg1
 10
0.375000
 20
0.597500
  0
SEQEND
  8
gg1
  0
POLYLINE
  8
gg1
 62
1
 40
0.000000
 41
0.000000
 66
  1
  0
VERTEX
  8
gg1
 10
0.437500
 20
0.590000
  0
VERTEX
  8
gg1
 10
0.452500
 20
0.590000
  0
SEQEND
  8
gg1
  0
POLYLINE
  8
gg1
 62
1
 40
0.000000
 41
0.000000
 66
  1
  0
VERTEX
  8
gg1
 10
0.445000
 20
0.582500
  0
VERTEX
  8
gg1
 10
0.445000
 20
0.597500
  0
SEQEND
  8
gg1
  0
POLYLINE
  8
gg1
 62
1
 40
0.000000
 41
0.000000
 66
  1
  0
VERTEX
  8
gg1
 10
0.402500
 20
0.590000
  0
VERTEX
  8
gg1
 10
0.417500
 20
0.590000
  0
SEQEND
  8
gg1
  0
POLYLINE
  8
gg1
 62
1
 40
0.000000
 41
0.000000
 66
  1
  0
VERTEX
  8
gg1
 10
0.410000
 20
0.582500
  0
VERTEX
  8
gg1
 10
0.410000
 20
0.597500
  0
SEQEND
  8
gg1
  0
POLYLINE
  8
gg1
 62
1
 40
0.000000
 41
0.000000
 66
  1
  0
VERTEX
  8
gg1
 10
0.402500
 20
0.520000
  0
VERTEX
  8
gg1
 10
0.417500
 20
0.520000
  0
SEQEND
  8
gg1
  0
POLYLINE
  8
gg1
 62
1
 40
0.000000
 41
0.000000
 66
  1
  0
VERTEX
  8
gg1
 10
0.410000
 20
0.512500
  0
VERTEX
  8
gg1
 10
0.410000
 20
0.527500
  0
SEQEND
  8
gg1
  0
POLYLINE
  8
gg1
 62
1
 40
0.000000
 41
0.000000
 66
  1
  0
VERTEX
  8
gg1
 10
0.162500
 20
0.670000
  0
VERTEX
  8
gg1
 10
0.177500
 20
0.670000
  0
SEQEND
  8
gg1
  0
POLYLINE
  8
gg1
 62
1
 40
0.000000
 41
0.000000
 66
  1
  0
VERTEX
  8
gg1
 10
0.170000
 20
0.662500
  0
VERTEX
  8
gg1
 10
0.170000
 20
0.677500
  0
SEQEND
  8
gg1
  0
POLYLINE
  8
gg1
 62
1
 40
0.000000
 41
0.000000
 66
  1
  0
VERTEX
  8
gg1
 10
0.222500
 20
0.530000
  0
VERTEX
  8
gg1
 10
0.237500
 20
0.530000
  0
SEQEND
  8
gg1
  0
POLYLINE
  8
gg1
 62
1
 40
0.000000
 41
0.000000
 66
  1
  0
VERTEX
  8
gg1
 10
0.230000
 20
0.522500
  0
VERTEX
  8
gg1
 10
0.230000
 20
0.537500
  0
SEQEND
  8
gg1
  0
POLYLINE
  8
gg1
 62
1
 40
0.000000
 41
0.000000
 66
  1
  0
VERTEX
  8
gg1
 10
0.227500
 20
0.470000
  0
VERTEX
  8
gg1
 10
0.242500
 20
0.470000
  0
SEQEND
  8
gg1
  0
POLYLINE
  8
gg1
 62
1
 40
0.000000
 41
0.000000
 66
  1
  0
VERTEX
  8
gg1
 10
0.235000
 20
0.462500
  0
VERTEX
  8
gg1
 10
0.235000
 20
0.477500
  0
SEQEND
  8
gg1
  0
POLYLINE
  8
gg1
 62
1
 40
0.000000
 41
0.000000
 66
  1
  0
VERTEX
  8
gg1
 10
0.257500
 20
0.440000
  0
VERTEX
  8
gg1
 10
0.272500
 20
0.440000
  0
SEQEND
  8
gg1
  0
POLYLINE
  8
gg1
 62
1
 40
0.000000
 41
0.000000
 66
  1
  0
VERTEX
  8
gg1
 10
0.265000
 20
0.432500
  0
VERTEX
  8
gg1
 10
0.265000
 20
0.447500
  0
SEQEND
  8
gg1
  0
POLYLINE
  8
gg1
 62
1
 40
0.000000
 41
0.000000
 66
  1
  0
VERTEX
  8
gg1
 10
0.197500
 20
0.445000
  0
VERTEX
  8
gg1
 10
0.212500
 20
0.445000
  0
SEQEND
  8
gg1
  0
POLYLINE
  8
gg1
 62
1
 40
0.000000
 41
0.000000
 66
  1
  0
VERTEX
  8
gg1
 10
0.205000
 20
0.437500
  0
VERTEX
  8
gg1
 10
0.205000
 20
0.452500
  0
SEQEND
  8
gg1
  0
POLYLINE
  8
gg1
 62
1
 40
0.000000
 41
0.000000
 66
  1
  0
VERTEX
  8
gg1
 10
0.157500
 20
0.235000
  0
VERTEX
  8
gg1
 10
0.172500
 20
0.235000
  0
SEQEND
  8
gg1
  0
POLYLINE
  8
gg1
 62
1
 40
0.000000
 41
0.000000
 66
  1
  0
VERTEX
  8
gg1
 10
0.165000
 20
0.227500
  0
VERTEX
  8
gg1
 10
0.165000
 20
0.242500
  0
SEQEND
  8
gg1
  0
POLYLINE
  8
gg1
 62
1
 40
0.000000
 41
0.000000
 66
  1
  0
VERTEX
  8
gg1
 10
0.127500
 20
0.260000
  0
VERTEX
  8
gg1
 10
0.142500
 20
0.260000
  0
SEQEND
  8
gg1
  0
POLYLINE
  8
gg1
 62
1
 40
0.000000
 41
0.000000
 66
  1
  0
VERTEX
  8
gg1
 10
0.135000
 20
0.252500
  0
VERTEX
  8
gg1
 10
0.135000
 20
0.267500
  0
SEQEND
  8
gg1
  0
POLYLINE
  8
gg1
 62
1
 40
0.000000
 41
0.000000
 66
  1
  0
VERTEX
  8
gg1
 10
0.502500
 20
0.450000
  0
VERTEX
  8
gg1
 10
0.517500
 20
0.450000
  0
SEQEND
  8
gg1
  0
POLYLINE
  8
gg1
 62
1
 40
0.000000
 41
0.000000
 66
  1
  0
VERTEX
  8
gg1
 10
0.510000
 20
0.442500
  0
VERTEX
  8
gg1
 10
0.510000
 20
0.457500
  0
SEQEND
  8
gg1
  0
POLYLINE
  8
gg1
 62
1
 40
0.000000
 41
0.000000
 66
  1
  0
VERTEX
  8
gg1
 10
0.157500
 20
0.120000
  0
VERTEX
  8
gg1
 10
0.172500
 20
0.120000
  0
SEQEND
  8
gg1
  0
POLYLINE
  8
gg1
 62
1
 40
0.000000
 41
0.000000
 66
  1
  0
VERTEX
  8
gg1
 10
0.165000
 20
0.112500
  0
VERTEX
  8
gg1
 10
0.165000
 20
0.127500
  0
SEQEND
  8
gg1
  0
POLYLINE
  8
gg1
 62
1
 40
0.000000
 41
0.000000
 66
  1
  0
VERTEX
  8
gg1
 10
0.122500
 20
0.120000
  0
VERTEX
  8
gg1
 10
0.137500
 20
0.120000
  0
SEQEND
  8
gg1
  0
POLYLINE
  8
gg1
 62
1
 40
0.000000
 41
0.000000
 66
  1
  0
VERTEX
  8
gg1
 10
0.130000
 20
0.112500
  0
VERTEX
  8
gg1
 10
0.130000
 20
0.127500
  0
SEQEND
  8
gg1
  0
POLYLINE
  8
gg1
 62
1
 40
0.000000
 41
0.000000
 66
  1
  0
VERTEX
  8
gg1
 10
0.607500
 20
0.150000
  0
VERTEX
  8
gg1
 10
0.622500
 20
0.150000
  0
SEQEND
  8
gg1
  0
POLYLINE
  8
gg1
 62
1
 40
0.000000
 41
0.000000
 66
  1
  0
VERTEX
  8
gg1
 10
0.615000
 20
0.142500
  0
VERTEX
  8
gg1
 10
0.615000
 20
0.157500
  0
SEQEND
  8
gg1
  0
POLYLINE
  8
gg1
 62
1
 40
0.000000
 41
0.000000
 66
  1
  0
VERTEX
  8
gg1
 10
0.737500
 20
0.760000
  0
VERTEX
  8
gg1
 10
0.752500
 20
0.760000
  0
SEQEND
  8
gg1
  0
POLYLINE
  8
gg1
 62
1
 40
0.000000
 41
0.000000
 66
  1
  0
VERTEX
  8
gg1
 10
0.745000
 20
0.752500
  0
VERTEX
  8
gg1
 10
0.745000
 20
0.767500
  0
SEQEND
  8
gg1
  0
POLYLINE
  8
gg1
 62
1
 40
0.000000
 41
0.000000
 66
  1
  0
VERTEX
  8
gg1
 10
0.767500
 20
0.760000
  0
VERTEX
  8
gg1
 10
0.782500
 20
0.760000
  0
SEQEND
  8
gg1
  0
POLYLINE
  8
gg1
 62
1
 40
0.000000
 41
0.000000
 66
  1
  0
VERTEX
  8
gg1
 10
0.775000
 20
0.752500
  0
VERTEX
  8
gg1
 10
0.775000
 20
0.767500
  0
SEQEND
  8
gg1
  0
POLYLINE
  8
gg1
 62
1
 40
0.000000
 41
0.000000
 66
  1
  0
VERTEX
  8
gg1
 10
0.797500
 20
0.760000
  0
VERTEX
  8
gg1
 10
0.812500
 20
0.760000
  0
SEQEND
  8
gg1
  0
POLYLINE
  8
gg1
 62
1
 40
0.000000
 41
0.000000
 66
  1
  0
VERTEX
  8
gg1
 10
0.805000
 20
0.752500
  0
VERTEX
  8
gg1
 10
0.805000
 20
0.767500
  0
SEQEND
  8
gg1
  0
POLYLINE
  8
gg1
 62
1
 40
0.000000
 41
0.000000
 66
  1
  0
VERTEX
  8
gg1
 10
0.827500
 20
0.760000
  0
VERTEX
  8
gg1
 10
0.842500
 20
0.760000
  0
SEQEND
  8
gg1
  0
POLYLINE
  8
gg1
 62
1
 40
0.000000
 41
0.000000
 66
  1
  0
VERTEX
  8
gg1
 10
0.835000
 20
0.752500
  0
VERTEX
  8
gg1
 10
0.835000
 20
0.767500
  0
SEQEND
  8
gg1
  0
POLYLINE
  8
gg1
 62
1
 40
0.000000
 41
0.000000
 66
  1
  0
VERTEX
  8
gg1
 10
0.477500
 20
0.545000
  0
VERTEX
  8
gg1
 10
0.492500
 20
0.545000
  0
SEQEND
  8
gg1
  0
POLYLINE
  8
gg1
 62
1
 40
0.000000
 41
0.000000
 66
  1
  0
VERTEX
  8
gg1
 10
0.485000
 20
0.537500
  0
VERTEX
  8
gg1
 10
0.485000
 20
0.552500
  0
SEQEND
  8
gg1
  0
POLYLINE
  8
gg1
 62
1
 40
0.000000
 41
0.000000
 66
  1
  0
VERTEX
  8
gg1
 10
0.532500
 20
0.570000
  0
VERTEX
  8
gg1
 10
0.547500
 20
0.570000
  0
SEQEND
  8
gg1
  0
POLYLINE
  8
gg1
 62
1
 40
0.000000
 41
0.000000
 66
  1
  0
VERTEX
  8
gg1
 10
0.540000
 20
0.562500
  0
VERTEX
  8
gg1
 10
0.540000
 20
0.577500
  0
SEQEND
  8
gg1
  0
POLYLINE
  8
gg1
 62
1
 40
0.000000
 41
0.000000
 66
  1
  0
VERTEX
  8
gg1
 10
0.527500
 20
0.520000
  0
VERTEX
  8
gg1
 10
0.542500
 20
0.520000
  0
SEQEND
  8
gg1
  0
POLYLINE
  8
gg1
 62
1
 40
0.000000
 41
0.000000
 66
  1
  0
VERTEX
  8
gg1
 10
0.535000
 20
0.512500
  0
VERTEX
  8
gg1
 10
0.535000
 20
0.527500
  0
SEQEND
  8
gg1
  0
POLYLINE
  8
gg1
 62
1
 40
0.000000
 41
0.000000
 66
  1
  0
VERTEX
  8
gg1
 10
0.507500
 20
0.545000
  0
VERTEX
  8
gg1
 10
0.522500
 20
0.545000
  0
SEQEND
  8
gg1
  0
POLYLINE
  8
gg1
 62
1
 40
0.000000
 41
0.000000
 66
  1
  0
VERTEX
  8
gg1
 10
0.515000
 20
0.537500
  0
VERTEX
  8
gg1
 10
0.515000
 20
0.552500
  0
SEQEND
  8
gg1
  0
POLYLINE
  8
gg1
 62
1
 40
0.000000
 41
0.000000
 66
  1
  0
VERTEX
  8
gg1
 10
0.492500
 20
0.520000
  0
VERTEX
  8
gg1
 10
0.507500
 20
0.520000
  0
SEQEND
  8
gg1
  0
POLYLINE
  8
gg1
 62
1
 40
0.000000
 41
0.000000
 66
  1
  0
VERTEX
  8
gg1
 10
0.500000
 20
0.512500
  0
VERTEX
  8
gg1
 10
0.500000
 20
0.527500
  0
SEQEND
  8
gg1
  0
POLYLINE
  8
gg1
 62
1
 40
0.000000
 41
0.000000
 66
  1
  0
VERTEX
  8
gg1
 10
0.447500
 20
0.520000
  0
VERTEX
  8
gg1
 10
0.462500
 20
0.520000
  0
SEQEND
  8
gg1
  0
POLYLINE
  8
gg1
 62
1
 40
0.000000
 41
0.000000
 66
  1
  0
VERTEX
  8
gg1
 10
0.455000
 20
0.512500
  0
VERTEX
  8
gg1
 10
0.455000
 20
0.527500
  0
SEQEND
  8
gg1
  0
POLYLINE
  8
gg1
 62
1
 40
0.000000
 41
0.000000
 66
  1
  0
VERTEX
  8
gg1
 10
0.477500
 20
0.435000
  0
VERTEX
  8
gg1
 10
0.492500
 20
0.435000
  0
SEQEND
  8
gg1
  0
POLYLINE
  8
gg1
 62
1
 40
0.000000
 41
0.000000
 66
  1
  0
VERTEX
  8
gg1
 10
0.485000
 20
0.427500
  0
VERTEX
  8
gg1
 10
0.485000
 20
0.442500
  0
SEQEND
  8
gg1
  0
POLYLINE
  8
gg1
 62
1
 40
0.000000
 41
0.000000
 66
  1
  0
VERTEX
  8
gg1
 10
0.552500
 20
0.545000
  0
VERTEX
  8
gg1
 10
0.567500
 20
0.545000
  0
SEQEND
  8
gg1
  0
POLYLINE
  8
gg1
 62
1
 40
0.000000
 41
0.000000
 66
  1
  0
VERTEX
  8
gg1
 10
0.560000
 20
0.537500
  0
VERTEX
  8
gg1
 10
0.560000
 20
0.552500
  0
SEQEND
  8
gg1
  0
POLYLINE
  8
gg1
 62
1
 40
0.000000
 41
0.000000
 66
  1
  0
VERTEX
  8
gg1
 10
0.622400
 20
0.570000
  0
VERTEX
  8
gg1
 10
0.637400
 20
0.570000
  0
SEQEND
  8
gg1
  0
POLYLINE
  8
gg1
 62
1
 40
0.000000
 41
0.000000
 66
  1
  0
VERTEX
  8
gg1
 10
0.629900
 20
0.562500
  0
VERTEX
  8
gg1
 10
0.629900
 20
0.577500
  0
SEQEND
  8
gg1
  0
POLYLINE
  8
gg1
 62
1
 40
0.000000
 41
0.000000
 66
  1
  0
VERTEX
  8
gg1
 10
0.577500
 20
0.570000
  0
VERTEX
  8
gg1
 10
0.592500
 20
0.570000
  0
SEQEND
  8
gg1
  0
POLYLINE
  8
gg1
 62
1
 40
0.000000
 41
0.000000
 66
  1
  0
VERTEX
  8
gg1
 10
0.585000
 20
0.562500
  0
VERTEX
  8
gg1
 10
0.585000
 20
0.577500
  0
SEQEND
  8
gg1
  0
POLYLINE
  8
gg1
 62
1
 40
0.000000
 41
0.000000
 66
  1
  0
VERTEX
  8
gg1
 10
0.572500
 20
0.520000
  0
VERTEX
  8
gg1
 10
0.587500
 20
0.520000
  0
SEQEND
  8
gg1
  0
POLYLINE
  8
gg1
 62
1
 40
0.000000
 41
0.000000
 66
  1
  0
VERTEX
  8
gg1
 10
0.580000
 20
0.512500
  0
VERTEX
  8
gg1
 10
0.580000
 20
0.527500
  0
SEQEND
  8
gg1
  0
POLYLINE
  8
gg1
 62
1
 40
0.000000
 41
0.000000
 66
  1
  0
VERTEX
  8
gg1
 10
0.547500
 20
0.495000
  0
VERTEX
  8
gg1
 10
0.562500
 20
0.495000
  0
SEQEND
  8
gg1
  0
POLYLINE
  8
gg1
 62
1
 40
0.000000
 41
0.000000
 66
  1
  0
VERTEX
  8
gg1
 10
0.555000
 20
0.487500
  0
VERTEX
  8
gg1
 10
0.555000
 20
0.502500
  0
SEQEND
  8
gg1
  0
POLYLINE
  8
gg1
 62
1
 40
0.000000
 41
0.000000
 66
  1
  0
VERTEX
  8
gg1
 10
0.202500
 20
0.070000
  0
VERTEX
  8
gg1
 10
0.217500
 20
0.070000
  0
SEQEND
  8
gg1
  0
POLYLINE
  8
gg1
 62
1
 40
0.000000
 41
0.000000
 66
  1
  0
VERTEX
  8
gg1
 10
0.210000
 20
0.062500
  0
VERTEX
  8
gg1
 10
0.210000
 20
0.077500
  0
SEQEND
  8
gg1
  0
POLYLINE
  8
gg1
 62
1
 40
0.000000
 41
0.000000
 66
  1
  0
VERTEX
  8
gg1
 10
0.207500
 20
0.040000
  0
VERTEX
  8
gg1
 10
0.222500
 20
0.040000
  0
SEQEND
  8
gg1
  0
POLYLINE
  8
gg1
 62
1
 40
0.000000
 41
0.000000
 66
  1
  0
VERTEX
  8
gg1
 10
0.215000
 20
0.032500
  0
VERTEX
  8
gg1
 10
0.215000
 20
0.047500
  0
SEQEND
  8
gg1
  0
POLYLINE
  8
gg1
 62
1
 40
0.000000
 41
0.000000
 66
  1
  0
VERTEX
  8
gg1
 10
0.437500
 20
0.215000
  0
VERTEX
  8
gg1
 10
0.452500
 20
0.215000
  0
SEQEND
  8
gg1
  0
POLYLINE
  8
gg1
 62
1
 40
0.000000
 41
0.000000
 66
  1
  0
VERTEX
  8
gg1
 10
0.445000
 20
0.207500
  0
VERTEX
  8
gg1
 10
0.445000
 20
0.222500
  0
SEQEND
  8
gg1
  0
POLYLINE
  8
gg1
 62
1
 40
0.000000
 41
0.000000
 66
  1
  0
VERTEX
  8
gg1
 10
0.447500
 20
0.185000
  0
VERTEX
  8
gg1
 10
0.462500
 20
0.185000
  0
SEQEND
  8
gg1
  0
POLYLINE
  8
gg1
 62
1
 40
0.000000
 41
0.000000
 66
  1
  0
VERTEX
  8
gg1
 10
0.455000
 20
0.177500
  0
VERTEX
  8
gg1
 10
0.455000
 20
0.192500
  0
SEQEND
  8
gg1
  0
POLYLINE
  8
gg1
 62
1
 40
0.000000
 41
0.000000
 66
  1
  0
VERTEX
  8
gg1
 10
0.612500
 20
0.040000
  0
VERTEX
  8
gg1
 10
0.627500
 20
0.040000
  0
SEQEND
  8
gg1
  0
POLYLINE
  8
gg1
 62
1
 40
0.000000
 41
0.000000
 66
  1
  0
VERTEX
  8
gg1
 10
0.620000
 20
0.032500
  0
VERTEX
  8
gg1
 10
0.620000
 20
0.047500
  0
SEQEND
  8
gg1
  0
POLYLINE
  8
gg1
 62
1
 40
0.000000
 41
0.000000
 66
  1
  0
VERTEX
  8
gg1
 10
0.491500
 20
0.149000
  0
VERTEX
  8
gg1
 10
0.506500
 20
0.149000
  0
SEQEND
  8
gg1
  0
POLYLINE
  8
gg1
 62
1
 40
0.000000
 41
0.000000
 66
  1
  0
VERTEX
  8
gg1
 10
0.499000
 20
0.141500
  0
VERTEX
  8
gg1
 10
0.499000
 20
0.156500
  0
SEQEND
  8
gg1
  0
POLYLINE
  8
gg1
 62
1
 40
0.000000
 41
0.000000
 66
  1
  0
VERTEX
  8
gg1
 10
1.092500
 20
0.165000
  0
VERTEX
  8
gg1
 10
1.107500
 20
0.165000
  0
SEQEND
  8
gg1
  0
POLYLINE
  8
gg1
 62
1
 40
0.000000
 41
0.000000
 66
  1
  0
VERTEX
  8
gg1
 10
1.100000
 20
0.157500
  0
VERTEX
  8
gg1
 10
1.100000
 20
0.172500
  0
SEQEND
  8
gg1
  0
POLYLINE
  8
gg1
 62
1
 40
0.000000
 41
0.000000
 66
  1
  0
VERTEX
  8
gg1
 10
1.092500
 20
0.130000
  0
VERTEX
  8
gg1
 10
1.107500
 20
0.130000
  0
SEQEND
  8
gg1
  0
POLYLINE
  8
gg1
 62
1
 40
0.000000
 41
0.000000
 66
  1
  0
VERTEX
  8
gg1
 10
1.100000
 20
0.122500
  0
VERTEX
  8
gg1
 10
1.100000
 20
0.137500
  0
SEQEND
  8
gg1
  0
POLYLINE
  8
gg1
 62
1
 40
0.000000
 41
0.000000
 66
  1
  0
VERTEX
  8
gg1
 10
1.092500
 20
0.095000
  0
VERTEX
  8
gg1
 10
1.107500
 20
0.095000
  0
SEQEND
  8
gg1
  0
POLYLINE
  8
gg1
 62
1
 40
0.000000
 41
0.000000
 66
  1
  0
VERTEX
  8
gg1
 10
1.100000
 20
0.087500
  0
VERTEX
  8
gg1
 10
1.100000
 20
0.102500
  0
SEQEND
  8
gg1
  0
POLYLINE
  8
gg1
 62
1
 40
0.000000
 41
0.000000
 66
  1
  0
VERTEX
  8
gg1
 10
1.092500
 20
0.060000
  0
VERTEX
  8
gg1
 10
1.107500
 20
0.060000
  0
SEQEND
  8
gg1
  0
POLYLINE
  8
gg1
 62
1
 40
0.000000
 41
0.000000
 66
  1
  0
VERTEX
  8
gg1
 10
1.100000
 20
0.052500
  0
VERTEX
  8
gg1
 10
1.100000
 20
0.067500
  0
SEQEND
  8
gg1
  0
POLYLINE
  8
gg1
 62
1
 40
0.000000
 41
0.000000
 66
  1
  0
VERTEX
  8
gg1
 10
1.062500
 20
0.040000
  0
VERTEX
  8
gg1
 10
1.077500
 20
0.040000
  0
SEQEND
  8
gg1
  0
POLYLINE
  8
gg1
 62
1
 40
0.000000
 41
0.000000
 66
  1
  0
VERTEX
  8
gg1
 10
1.070000
 20
0.032500
  0
VERTEX
  8
gg1
 10
1.070000
 20
0.047500
  0
SEQEND
  8
gg1
  0
POLYLINE
  8
gg1
 62
1
 40
0.000000
 41
0.000000
 66
  1
  0
VERTEX
  8
gg1
 10
1.062500
 20
0.075000
  0
VERTEX
  8
gg1
 10
1.077500
 20
0.075000
  0
SEQEND
  8
gg1
  0
POLYLINE
  8
gg1
 62
1
 40
0.000000
 41
0.000000
 66
  1
  0
VERTEX
  8
gg1
 10
1.070000
 20
0.067500
  0
VERTEX
  8
gg1
 10
1.070000
 20
0.082500
  0
SEQEND
  8
gg1
  0
POLYLINE
  8
gg1
 62
1
 40
0.000000
 41
0.000000
 66
  1
  0
VERTEX
  8
gg1
 10
1.062500
 20
0.110000
  0
VERTEX
  8
gg1
 10
1.077500
 20
0.110000
  0
SEQEND
  8
gg1
  0
POLYLINE
  8
gg1
 62
1
 40
0.000000
 41
0.000000
 66
  1
  0
VERTEX
  8
gg1
 10
1.070000
 20
0.102500
  0
VERTEX
  8
gg1
 10
1.070000
 20
0.117500
  0
SEQEND
  8
gg1
  0
POLYLINE
  8
gg1
 62
1
 40
0.000000
 41
0.000000
 66
  1
  0
VERTEX
  8
gg1
 10
1.062500
 20
0.145000
  0
VERTEX
  8
gg1
 10
1.077500
 20
0.145000
  0
SEQEND
  8
gg1
  0
POLYLINE
  8
gg1
 62
1
 40
0.000000
 41
0.000000
 66
  1
  0
VERTEX
  8
gg1
 10
1.070000
 20
0.137500
  0
VERTEX
  8
gg1
 10
1.070000
 20
0.152500
  0
SEQEND
  8
gg1
  0
POLYLINE
  8
gg1
 62
1
 40
0.000000
 41
0.000000
 66
  1
  0
VERTEX
  8
gg1
 10
1.102500
 20
0.295000
  0
VERTEX
  8
gg1
 10
1.117500
 20
0.295000
  0
SEQEND
  8
gg1
  0
POLYLINE
  8
gg1
 62
1
 40
0.000000
 41
0.000000
 66
  1
  0
VERTEX
  8
gg1
 10
1.110000
 20
0.287500
  0
VERTEX
  8
gg1
 10
1.110000
 20
0.302500
  0
SEQEND
  8
gg1
  0
POLYLINE
  8
gg1
 62
1
 40
0.000000
 41
0.000000
 66
  1
  0
VERTEX
  8
gg1
 10
1.077500
 20
0.220000
  0
VERTEX
  8
gg1
 10
1.092500
 20
0.220000
  0
SEQEND
  8
gg1
  0
POLYLINE
  8
gg1
 62
1
 40
0.000000
 41
0.000000
 66
  1
  0
VERTEX
  8
gg1
 10
1.085000
 20
0.212500
  0
VERTEX
  8
gg1
 10
1.085000
 20
0.227500
  0
SEQEND
  8
gg1
  0
POLYLINE
  8
gg1
 62
1
 40
0.000000
 41
0.000000
 66
  1
  0
VERTEX
  8
gg1
 10
1.052500
 20
0.295000
  0
VERTEX
  8
gg1
 10
1.067500
 20
0.295000
  0
SEQEND
  8
gg1
  0
POLYLINE
  8
gg1
 62
1
 40
0.000000
 41
0.000000
 66
  1
  0
VERTEX
  8
gg1
 10
1.060000
 20
0.287500
  0
VERTEX
  8
gg1
 10
1.060000
 20
0.302500
  0
SEQEND
  8
gg1
  0
POLYLINE
  8
gg1
 62
1
 40
0.000000
 41
0.000000
 66
  1
  0
VERTEX
  8
gg1
 10
1.077500
 20
0.270000
  0
VERTEX
  8
gg1
 10
1.092500
 20
0.270000
  0
SEQEND
  8
gg1
  0
POLYLINE
  8
gg1
 62
1
 40
0.000000
 41
0.000000
 66
  1
  0
VERTEX
  8
gg1
 10
1.085000
 20
0.262500
  0
VERTEX
  8
gg1
 10
1.085000
 20
0.277500
  0
SEQEND
  8
gg1
  0
POLYLINE
  8
gg1
 62
1
 40
0.000000
 41
0.000000
 66
  1
  0
VERTEX
  8
gg1
 10
1.077500
 20
0.320000
  0
VERTEX
  8
gg1
 10
1.092500
 20
0.320000
  0
SEQEND
  8
gg1
  0
POLYLINE
  8
gg1
 62
1
 40
0.000000
 41
0.000000
 66
  1
  0
VERTEX
  8
gg1
 10
1.085000
 20
0.312500
  0
VERTEX
  8
gg1
 10
1.085000
 20
0.327500
  0
SEQEND
  8
gg1
  0
POLYLINE
  8
gg1
 62
1
 40
0.000000
 41
0.000000
 66
  1
  0
VERTEX
  8
gg1
 10
1.027500
 20
0.220000
  0
VERTEX
  8
gg1
 10
1.042500
 20
0.220000
  0
SEQEND
  8
gg1
  0
POLYLINE
  8
gg1
 62
1
 40
0.000000
 41
0.000000
 66
  1
  0
VERTEX
  8
gg1
 10
1.035000
 20
0.212500
  0
VERTEX
  8
gg1
 10
1.035000
 20
0.227500
  0
SEQEND
  8
gg1
  0
POLYLINE
  8
gg1
 62
1
 40
0.000000
 41
0.000000
 66
  1
  0
VERTEX
  8
gg1
 10
1.052500
 20
0.245000
  0
VERTEX
  8
gg1
 10
1.067500
 20
0.245000
  0
SEQEND
  8
gg1
  0
POLYLINE
  8
gg1
 62
1
 40
0.000000
 41
0.000000
 66
  1
  0
VERTEX
  8
gg1
 10
1.060000
 20
0.237500
  0
VERTEX
  8
gg1
 10
1.060000
 20
0.252500
  0
SEQEND
  8
gg1
  0
POLYLINE
  8
gg1
 62
1
 40
0.000000
 41
0.000000
 66
  1
  0
VERTEX
  8
gg1
 10
1.027500
 20
0.270000
  0
VERTEX
  8
gg1
 10
1.042500
 20
0.270000
  0
SEQEND
  8
gg1
  0
POLYLINE
  8
gg1
 62
1
 40
0.000000
 41
0.000000
 66
  1
  0
VERTEX
  8
gg1
 10
1.035000
 20
0.262500
  0
VERTEX
  8
gg1
 10
1.035000
 20
0.277500
  0
SEQEND
  8
gg1
  0
POLYLINE
  8
gg1
 62
1
 40
0.000000
 41
0.000000
 66
  1
  0
VERTEX
  8
gg1
 10
1.002500
 20
0.245000
  0
VERTEX
  8
gg1
 10
1.017500
 20
0.245000
  0
SEQEND
  8
gg1
  0
POLYLINE
  8
gg1
 62
1
 40
0.000000
 41
0.000000
 66
  1
  0
VERTEX
  8
gg1
 10
1.010000
 20
0.237500
  0
VERTEX
  8
gg1
 10
1.010000
 20
0.252500
  0
SEQEND
  8
gg1
  0
POLYLINE
  8
gg1
 62
1
 40
0.000000
 41
0.000000
 66
  1
  0
VERTEX
  8
gg1
 10
0.867500
 20
0.245000
  0
VERTEX
  8
gg1
 10
0.882500
 20
0.245000
  0
SEQEND
  8
gg1
  0
POLYLINE
  8
gg1
 62
1
 40
0.000000
 41
0.000000
 66
  1
  0
VERTEX
  8
gg1
 10
0.875000
 20
0.237500
  0
VERTEX
  8
gg1
 10
0.875000
 20
0.252500
  0
SEQEND
  8
gg1
  0
POLYLINE
  8
gg1
 62
1
 40
0.000000
 41
0.000000
 66
  1
  0
VERTEX
  8
gg1
 10
0.977500
 20
0.220000
  0
VERTEX
  8
gg1
 10
0.992500
 20
0.220000
  0
SEQEND
  8
gg1
  0
POLYLINE
  8
gg1
 62
1
 40
0.000000
 41
0.000000
 66
  1
  0
VERTEX
  8
gg1
 10
0.985000
 20
0.212500
  0
VERTEX
  8
gg1
 10
0.985000
 20
0.227500
  0
SEQEND
  8
gg1
  0
POLYLINE
  8
gg1
 62
1
 40
0.000000
 41
0.000000
 66
  1
  0
VERTEX
  8
gg1
 10
0.952500
 20
0.245000
  0
VERTEX
  8
gg1
 10
0.967500
 20
0.245000
  0
SEQEND
  8
gg1
  0
POLYLINE
  8
gg1
 62
1
 40
0.000000
 41
0.000000
 66
  1
  0
VERTEX
  8
gg1
 10
0.960000
 20
0.237500
  0
VERTEX
  8
gg1
 10
0.960000
 20
0.252500
  0
SEQEND
  8
gg1
  0
POLYLINE
  8
gg1
 62
1
 40
0.000000
 41
0.000000
 66
  1
  0
VERTEX
  8
gg1
 10
0.927500
 20
0.220000
  0
VERTEX
  8
gg1
 10
0.942500
 20
0.220000
  0
SEQEND
  8
gg1
  0
POLYLINE
  8
gg1
 62
1
 40
0.000000
 41
0.000000
 66
  1
  0
VERTEX
  8
gg1
 10
0.935000
 20
0.212500
  0
VERTEX
  8
gg1
 10
0.935000
 20
0.227500
  0
SEQEND
  8
gg1
  0
POLYLINE
  8
gg1
 62
1
 40
0.000000
 41
0.000000
 66
  1
  0
VERTEX
  8
gg1
 10
0.902500
 20
0.245000
  0
VERTEX
  8
gg1
 10
0.917500
 20
0.245000
  0
SEQEND
  8
gg1
  0
POLYLINE
  8
gg1
 62
1
 40
0.000000
 41
0.000000
 66
  1
  0
VERTEX
  8
gg1
 10
0.910000
 20
0.237500
  0
VERTEX
  8
gg1
 10
0.910000
 20
0.252500
  0
SEQEND
  8
gg1
  0
POLYLINE
  8
gg1
 62
1
 40
0.000000
 41
0.000000
 66
  1
  0
VERTEX
  8
gg1
 10
0.868000
 20
0.215000
  0
VERTEX
  8
gg1
 10
0.883000
 20
0.215000
  0
SEQEND
  8
gg1
  0
POLYLINE
  8
gg1
 62
1
 40
0.000000
 41
0.000000
 66
  1
  0
VERTEX
  8
gg1
 10
0.875500
 20
0.207500
  0
VERTEX
  8
gg1
 10
0.875500
 20
0.222500
  0
SEQEND
  8
gg1
  0
POLYLINE
  8
gg1
 62
1
 40
0.000000
 41
0.000000
 66
  1
  0
VERTEX
  8
gg1
 10
1.082500
 20
0.625000
  0
VERTEX
  8
gg1
 10
1.097500
 20
0.625000
  0
SEQEND
  8
gg1
  0
POLYLINE
  8
gg1
 62
1
 40
0.000000
 41
0.000000
 66
  1
  0
VERTEX
  8
gg1
 10
1.090000
 20
0.617500
  0
VERTEX
  8
gg1
 10
1.090000
 20
0.632500
  0
SEQEND
  8
gg1
  0
POLYLINE
  8
gg1
 62
1
 40
0.000000
 41
0.000000
 66
  1
  0
VERTEX
  8
gg1
 10
0.707500
 20
0.445000
  0
VERTEX
  8
gg1
 10
0.722500
 20
0.445000
  0
SEQEND
  8
gg1
  0
POLYLINE
  8
gg1
 62
1
 40
0.000000
 41
0.000000
 66
  1
  0
VERTEX
  8
gg1
 10
0.715000
 20
0.437500
  0
VERTEX
  8
gg1
 10
0.715000
 20
0.452500
  0
SEQEND
  8
gg1
  0
POLYLINE
  8
gg1
 62
1
 40
0.000000
 41
0.000000
 66
  1
  0
VERTEX
  8
gg1
 10
0.677500
 20
0.445000
  0
VERTEX
  8
gg1
 10
0.692500
 20
0.445000
  0
SEQEND
  8
gg1
  0
POLYLINE
  8
gg1
 62
1
 40
0.000000
 41
0.000000
 66
  1
  0
VERTEX
  8
gg1
 10
0.685000
 20
0.437500
  0
VERTEX
  8
gg1
 10
0.685000
 20
0.452500
  0
SEQEND
  8
gg1
  0
POLYLINE
  8
gg1
 62
1
 40
0.000000
 41
0.000000
 66
  1
  0
VERTEX
  8
gg1
 10
0.902500
 20
0.160000
  0
VERTEX
  8
gg1
 10
0.917500
 20
0.160000
  0
SEQEND
  8
gg1
  0
POLYLINE
  8
gg1
 62
1
 40
0.000000
 41
0.000000
 66
  1
  0
VERTEX
  8
gg1
 10
0.910000
 20
0.152500
  0
VERTEX
  8
gg1
 10
0.910000
 20
0.167500
  0
SEQEND
  8
gg1
  0
POLYLINE
  8
gg1
 62
1
 40
0.000000
 41
0.000000
 66
  1
  0
VERTEX
  8
gg1
 10
0.932500
 20
0.160000
  0
VERTEX
  8
gg1
 10
0.947500
 20
0.160000
  0
SEQEND
  8
gg1
  0
POLYLINE
  8
gg1
 62
1
 40
0.000000
 41
0.000000
 66
  1
  0
VERTEX
  8
gg1
 10
0.940000
 20
0.152500
  0
VERTEX
  8
gg1
 10
0.940000
 20
0.167500
  0
SEQEND
  8
gg1
  0
POLYLINE
  8
gg1
 62
1
 40
0.000000
 41
0.000000
 66
  1
  0
VERTEX
  8
gg1
 10
0.962500
 20
0.160000
  0
VERTEX
  8
gg1
 10
0.977500
 20
0.160000
  0
SEQEND
  8
gg1
  0
POLYLINE
  8
gg1
 62
1
 40
0.000000
 41
0.000000
 66
  1
  0
VERTEX
  8
gg1
 10
0.970000
 20
0.152500
  0
VERTEX
  8
gg1
 10
0.970000
 20
0.167500
  0
SEQEND
  8
gg1
  0
POLYLINE
  8
gg1
 62
1
 40
0.000000
 41
0.000000
 66
  1
  0
VERTEX
  8
gg1
 10
0.992500
 20
0.160000
  0
VERTEX
  8
gg1
 10
1.007500
 20
0.160000
  0
SEQEND
  8
gg1
  0
POLYLINE
  8
gg1
 62
1
 40
0.000000
 41
0.000000
 66
  1
  0
VERTEX
  8
gg1
 10
1.000000
 20
0.152500
  0
VERTEX
  8
gg1
 10
1.000000
 20
0.167500
  0
SEQEND
  8
gg1
  0
POLYLINE
  8
gg1
 62
1
 40
0.000000
 41
0.000000
 66
  1
  0
VERTEX
  8
gg1
 10
1.057500
 20
0.760000
  0
VERTEX
  8
gg1
 10
1.072500
 20
0.760000
  0
SEQEND
  8
gg1
  0
POLYLINE
  8
gg1
 62
1
 40
0.000000
 41
0.000000
 66
  1
  0
VERTEX
  8
gg1
 10
1.065000
 20
0.752500
  0
VERTEX
  8
gg1
 10
1.065000
 20
0.767500
  0
SEQEND
  8
gg1
  0
POLYLINE
  8
gg1
 62
1
 40
0.000000
 41
0.000000
 66
  1
  0
VERTEX
  8
gg1
 10
1.082500
 20
0.735000
  0
VERTEX
  8
gg1
 10
1.097500
 20
0.735000
  0
SEQEND
  8
gg1
  0
POLYLINE
  8
gg1
 62
1
 40
0.000000
 41
0.000000
 66
  1
  0
VERTEX
  8
gg1
 10
1.090000
 20
0.727500
  0
VERTEX
  8
gg1
 10
1.090000
 20
0.742500
  0
SEQEND
  8
gg1
  0
POLYLINE
  8
gg1
 62
1
 40
0.000000
 41
0.000000
 66
  1
  0
VERTEX
  8
gg1
 10
1.082500
 20
0.685000
  0
VERTEX
  8
gg1
 10
1.097500
 20
0.685000
  0
SEQEND
  8
gg1
  0
POLYLINE
  8
gg1
 62
1
 40
0.000000
 41
0.000000
 66
  1
  0
VERTEX
  8
gg1
 10
1.090000
 20
0.677500
  0
VERTEX
  8
gg1
 10
1.090000
 20
0.692500
  0
SEQEND
  8
gg1
  0
POLYLINE
  8
gg1
 62
1
 40
0.000000
 41
0.000000
 66
  1
  0
VERTEX
  8
gg1
 10
1.062500
 20
0.595000
  0
VERTEX
  8
gg1
 10
1.077500
 20
0.595000
  0
SEQEND
  8
gg1
  0
POLYLINE
  8
gg1
 62
1
 40
0.000000
 41
0.000000
 66
  1
  0
VERTEX
  8
gg1
 10
1.070000
 20
0.587500
  0
VERTEX
  8
gg1
 10
1.070000
 20
0.602500
  0
SEQEND
  8
gg1
  0
POLYLINE
  8
gg1
 62
1
 40
0.000000
 41
0.000000
 66
  1
  0
VERTEX
  8
gg1
 10
0.817500
 20
0.475000
  0
VERTEX
  8
gg1
 10
0.832500
 20
0.475000
  0
SEQEND
  8
gg1
  0
POLYLINE
  8
gg1
 62
1
 40
0.000000
 41
0.000000
 66
  1
  0
VERTEX
  8
gg1
 10
0.825000
 20
0.467500
  0
VERTEX
  8
gg1
 10
0.825000
 20
0.482500
  0
SEQEND
  8
gg1
  0
POLYLINE
  8
gg1
 62
1
 40
0.000000
 41
0.000000
 66
  1
  0
VERTEX
  8
gg1
 10
0.960500
 20
0.430000
  0
VERTEX
  8
gg1
 10
0.975500
 20
0.430000
  0
SEQEND
  8
gg1
  0
POLYLINE
  8
gg1
 62
1
 40
0.000000
 41
0.000000
 66
  1
  0
VERTEX
  8
gg1
 10
0.968000
 20
0.422500
  0
VERTEX
  8
gg1
 10
0.968000
 20
0.437500
  0
SEQEND
  8
gg1
  0
POLYLINE
  8
gg1
 62
1
 40
0.000000
 41
0.000000
 66
  1
  0
VERTEX
  8
gg1
 10
1.117500
 20
0.500000
  0
VERTEX
  8
gg1
 10
1.132500
 20
0.500000
  0
SEQEND
  8
gg1
  0
POLYLINE
  8
gg1
 62
1
 40
0.000000
 41
0.000000
 66
  1
  0
VERTEX
  8
gg1
 10
1.125000
 20
0.492500
  0
VERTEX
  8
gg1
 10
1.125000
 20
0.507500
  0
SEQEND
  8
gg1
  0
POLYLINE
  8
gg1
 62
1
 40
0.000000
 41
0.000000
 66
  1
  0
VERTEX
  8
gg1
 10
1.087500
 20
0.490000
  0
VERTEX
  8
gg1
 10
1.102500
 20
0.490000
  0
SEQEND
  8
gg1
  0
POLYLINE
  8
gg1
 62
1
 40
0.000000
 41
0.000000
 66
  1
  0
VERTEX
  8
gg1
 10
1.095000
 20
0.482500
  0
VERTEX
  8
gg1
 10
1.095000
 20
0.497500
  0
SEQEND
  8
gg1
  0
POLYLINE
  8
gg1
 62
1
 40
0.000000
 41
0.000000
 66
  1
  0
VERTEX
  8
gg1
 10
1.087500
 20
0.460000
  0
VERTEX
  8
gg1
 10
1.102500
 20
0.460000
  0
SEQEND
  8
gg1
  0
POLYLINE
  8
gg1
 62
1
 40
0.000000
 41
0.000000
 66
  1
  0
VERTEX
  8
gg1
 10
1.095000
 20
0.452500
  0
VERTEX
  8
gg1
 10
1.095000
 20
0.467500
  0
SEQEND
  8
gg1
  0
POLYLINE
  8
gg1
 62
1
 40
0.000000
 41
0.000000
 66
  1
  0
VERTEX
  8
gg1
 10
1.087500
 20
0.400000
  0
VERTEX
  8
gg1
 10
1.102500
 20
0.400000
  0
SEQEND
  8
gg1
  0
POLYLINE
  8
gg1
 62
1
 40
0.000000
 41
0.000000
 66
  1
  0
VERTEX
  8
gg1
 10
1.095000
 20
0.392500
  0
VERTEX
  8
gg1
 10
1.095000
 20
0.407500
  0
SEQEND
  8
gg1
  0
POLYLINE
  8
gg1
 62
1
 40
0.000000
 41
0.000000
 66
  1
  0
VERTEX
  8
gg1
 10
1.087500
 20
0.430000
  0
VERTEX
  8
gg1
 10
1.102500
 20
0.430000
  0
SEQEND
  8
gg1
  0
POLYLINE
  8
gg1
 62
1
 40
0.000000
 41
0.000000
 66
  1
  0
VERTEX
  8
gg1
 10
1.095000
 20
0.422500
  0
VERTEX
  8
gg1
 10
1.095000
 20
0.437500
  0
SEQEND
  8
gg1
  0
POLYLINE
  8
gg1
 62
1
 40
0.000000
 41
0.000000
 66
  1
  0
VERTEX
  8
gg1
 10
1.057500
 20
0.660000
  0
VERTEX
  8
gg1
 10
1.072500
 20
0.660000
  0
SEQEND
  8
gg1
  0
POLYLINE
  8
gg1
 62
1
 40
0.000000
 41
0.000000
 66
  1
  0
VERTEX
  8
gg1
 10
1.065000
 20
0.652500
  0
VERTEX
  8
gg1
 10
1.065000
 20
0.667500
  0
SEQEND
  8
gg1
  0
POLYLINE
  8
gg1
 62
1
 40
0.000000
 41
0.000000
 66
  1
  0
VERTEX
  8
gg1
 10
1.057500
 20
0.710000
  0
VERTEX
  8
gg1
 10
1.072500
 20
0.710000
  0
SEQEND
  8
gg1
  0
POLYLINE
  8
gg1
 62
1
 40
0.000000
 41
0.000000
 66
  1
  0
VERTEX
  8
gg1
 10
1.065000
 20
0.702500
  0
VERTEX
  8
gg1
 10
1.065000
 20
0.717500
  0
SEQEND
  8
gg1
  0
POLYLINE
  8
gg1
 62
1
 40
0.000000
 41
0.000000
 66
  1
  0
VERTEX
  8
gg1
 10
1.052500
 20
0.625000
  0
VERTEX
  8
gg1
 10
1.067500
 20
0.625000
  0
SEQEND
  8
gg1
  0
POLYLINE
  8
gg1
 62
1
 40
0.000000
 41
0.000000
 66
  1
  0
VERTEX
  8
gg1
 10
1.060000
 20
0.617500
  0
VERTEX
  8
gg1
 10
1.060000
 20
0.632500
  0
SEQEND
  8
gg1
  0
POLYLINE
  8
gg1
 62
1
 40
0.000000
 41
0.000000
 66
  1
  0
VERTEX
  8
gg1
 10
1.097500
 20
0.595000
  0
VERTEX
  8
gg1
 10
1.112500
 20
0.595000
  0
SEQEND
  8
gg1
  0
POLYLINE
  8
gg1
 62
1
 40
0.000000
 41
0.000000
 66
  1
  0
VERTEX
  8
gg1
 10
1.105000
 20
0.587500
  0
VERTEX
  8
gg1
 10
1.105000
 20
0.602500
  0
SEQEND
  8
gg1
  0
POLYLINE
  8
gg1
 62
1
 40
0.000000
 41
0.000000
 66
  1
  0
VERTEX
  8
gg1
 10
1.022500
 20
0.625000
  0
VERTEX
  8
gg1
 10
1.037500
 20
0.625000
  0
SEQEND
  8
gg1
  0
POLYLINE
  8
gg1
 62
1
 40
0.000000
 41
0.000000
 66
  1
  0
VERTEX
  8
gg1
 10
1.030000
 20
0.617500
  0
VERTEX
  8
gg1
 10
1.030000
 20
0.632500
  0
SEQEND
  8
gg1
  0
POLYLINE
  8
gg1
 62
1
 40
0.000000
 41
0.000000
 66
  1
  0
VERTEX
  8
gg1
 10
1.027500
 20
0.595000
  0
VERTEX
  8
gg1
 10
1.042500
 20
0.595000
  0
SEQEND
  8
gg1
  0
POLYLINE
  8
gg1
 62
1
 40
0.000000
 41
0.000000
 66
  1
  0
VERTEX
  8
gg1
 10
1.035000
 20
0.587500
  0
VERTEX
  8
gg1
 10
1.035000
 20
0.602500
  0
SEQEND
  8
gg1
  0
POLYLINE
  8
gg1
 62
1
 40
0.000000
 41
0.000000
 66
  1
  0
VERTEX
  8
gg1
 10
0.992500
 20
0.595000
  0
VERTEX
  8
gg1
 10
1.007500
 20
0.595000
  0
SEQEND
  8
gg1
  0
POLYLINE
  8
gg1
 62
1
 40
0.000000
 41
0.000000
 66
  1
  0
VERTEX
  8
gg1
 10
1.000000
 20
0.587500
  0
VERTEX
  8
gg1
 10
1.000000
 20
0.602500
  0
SEQEND
  8
gg1
  0
POLYLINE
  8
gg1
 62
1
 40
0.000000
 41
0.000000
 66
  1
  0
VERTEX
  8
gg1
 10
0.957500
 20
0.595000
  0
VERTEX
  8
gg1
 10
0.972500
 20
0.595000
  0
SEQEND
  8
gg1
  0
POLYLINE
  8
gg1
 62
1
 40
0.000000
 41
0.000000
 66
  1
  0
VERTEX
  8
gg1
 10
0.965000
 20
0.587500
  0
VERTEX
  8
gg1
 10
0.965000
 20
0.602500
  0
SEQEND
  8
gg1
  0
POLYLINE
  8
gg1
 62
1
 40
0.000000
 41
0.000000
 66
  1
  0
VERTEX
  8
gg1
 10
0.652500
 20
0.310000
  0
VERTEX
  8
gg1
 10
0.667500
 20
0.310000
  0
SEQEND
  8
gg1
  0
POLYLINE
  8
gg1
 62
1
 40
0.000000
 41
0.000000
 66
  1
  0
VERTEX
  8
gg1
 10
0.660000
 20
0.302500
  0
VERTEX
  8
gg1
 10
0.660000
 20
0.317500
  0
SEQEND
  8
gg1
  0
POLYLINE
  8
gg1
 62
1
 40
0.000000
 41
0.000000
 66
  1
  0
VERTEX
  8
gg1
 10
0.682500
 20
0.310000
  0
VERTEX
  8
gg1
 10
0.697500
 20
0.310000
  0
SEQEND
  8
gg1
  0
POLYLINE
  8
gg1
 62
1
 40
0.000000
 41
0.000000
 66
  1
  0
VERTEX
  8
gg1
 10
0.690000
 20
0.302500
  0
VERTEX
  8
gg1
 10
0.690000
 20
0.317500
  0
SEQEND
  8
gg1
  0
POLYLINE
  8
gg1
 62
1
 40
0.000000
 41
0.000000
 66
  1
  0
VERTEX
  8
gg1
 10
0.752500
 20
0.420000
  0
VERTEX
  8
gg1
 10
0.767500
 20
0.420000
  0
SEQEND
  8
gg1
  0
POLYLINE
  8
gg1
 62
1
 40
0.000000
 41
0.000000
 66
  1
  0
VERTEX
  8
gg1
 10
0.760000
 20
0.412500
  0
VERTEX
  8
gg1
 10
0.760000
 20
0.427500
  0
SEQEND
  8
gg1
  0
POLYLINE
  8
gg1
 62
1
 40
0.000000
 41
0.000000
 66
  1
  0
VERTEX
  8
gg1
 10
0.687500
 20
0.145000
  0
VERTEX
  8
gg1
 10
0.702500
 20
0.145000
  0
SEQEND
  8
gg1
  0
POLYLINE
  8
gg1
 62
1
 40
0.000000
 41
0.000000
 66
  1
  0
VERTEX
  8
gg1
 10
0.695000
 20
0.137500
  0
VERTEX
  8
gg1
 10
0.695000
 20
0.152500
  0
SEQEND
  8
gg1
  0
POLYLINE
  8
gg1
 62
1
 40
0.000000
 41
0.000000
 66
  1
  0
VERTEX
  8
gg1
 10
0.627500
 20
0.125000
  0
VERTEX
  8
gg1
 10
0.642500
 20
0.125000
  0
SEQEND
  8
gg1
  0
POLYLINE
  8
gg1
 62
1
 40
0.000000
 41
0.000000
 66
  1
  0
VERTEX
  8
gg1
 10
0.635000
 20
0.117500
  0
VERTEX
  8
gg1
 10
0.635000
 20
0.132500
  0
SEQEND
  8
gg1
  0
POLYLINE
  8
gg1
 62
1
 40
0.000000
 41
0.000000
 66
  1
  0
VERTEX
  8
gg1
 10
0.662500
 20
0.170000
  0
VERTEX
  8
gg1
 10
0.677500
 20
0.170000
  0
SEQEND
  8
gg1
  0
POLYLINE
  8
gg1
 62
1
 40
0.000000
 41
0.000000
 66
  1
  0
VERTEX
  8
gg1
 10
0.670000
 20
0.162500
  0
VERTEX
  8
gg1
 10
0.670000
 20
0.177500
  0
SEQEND
  8
gg1
  0
POLYLINE
  8
gg1
 62
1
 40
0.000000
 41
0.000000
 66
  1
  0
VERTEX
  8
gg1
 10
0.732500
 20
0.100000
  0
VERTEX
  8
gg1
 10
0.747500
 20
0.100000
  0
SEQEND
  8
gg1
  0
POLYLINE
  8
gg1
 62
1
 40
0.000000
 41
0.000000
 66
  1
  0
VERTEX
  8
gg1
 10
0.740000
 20
0.092500
  0
VERTEX
  8
gg1
 10
0.740000
 20
0.107500
  0
SEQEND
  8
gg1
  0
POLYLINE
  8
gg1
 62
1
 40
0.000000
 41
0.000000
 66
  1
  0
VERTEX
  8
gg1
 10
0.732500
 20
0.065000
  0
VERTEX
  8
gg1
 10
0.747500
 20
0.065000
  0
SEQEND
  8
gg1
  0
POLYLINE
  8
gg1
 62
1
 40
0.000000
 41
0.000000
 66
  1
  0
VERTEX
  8
gg1
 10
0.740000
 20
0.057500
  0
VERTEX
  8
gg1
 10
0.740000
 20
0.072500
  0
SEQEND
  8
gg1
  0
POLYLINE
  8
gg1
 62
1
 40
0.000000
 41
0.000000
 66
  1
  0
VERTEX
  8
gg1
 10
0.597500
 20
0.545000
  0
VERTEX
  8
gg1
 10
0.612500
 20
0.545000
  0
SEQEND
  8
gg1
  0
POLYLINE
  8
gg1
 62
1
 40
0.000000
 41
0.000000
 66
  1
  0
VERTEX
  8
gg1
 10
0.605000
 20
0.537500
  0
VERTEX
  8
gg1
 10
0.605000
 20
0.552500
  0
SEQEND
  8
gg1
  0
POLYLINE
  8
gg1
 62
1
 40
0.000000
 41
0.000000
 66
  1
  0
VERTEX
  8
gg1
 10
0.652500
 20
0.420000
  0
VERTEX
  8
gg1
 10
0.667500
 20
0.420000
  0
SEQEND
  8
gg1
  0
POLYLINE
  8
gg1
 62
1
 40
0.000000
 41
0.000000
 66
  1
  0
VERTEX
  8
gg1
 10
0.660000
 20
0.412500
  0
VERTEX
  8
gg1
 10
0.660000
 20
0.427500
  0
SEQEND
  8
gg1
  0
POLYLINE
  8
gg1
 62
1
 40
0.000000
 41
0.000000
 66
  1
  0
VERTEX
  8
gg1
 10
0.667500
 20
0.335000
  0
VERTEX
  8
gg1
 10
0.682500
 20
0.335000
  0
SEQEND
  8
gg1
  0
POLYLINE
  8
gg1
 62
1
 40
0.000000
 41
0.000000
 66
  1
  0
VERTEX
  8
gg1
 10
0.675000
 20
0.327500
  0
VERTEX
  8
gg1
 10
0.675000
 20
0.342500
  0
SEQEND
  8
gg1
  0
POLYLINE
  8
gg1
 62
1
 40
0.000000
 41
0.000000
 66
  1
  0
VERTEX
  8
gg1
 10
0.652500
 20
0.360000
  0
VERTEX
  8
gg1
 10
0.667500
 20
0.360000
  0
SEQEND
  8
gg1
  0
POLYLINE
  8
gg1
 62
1
 40
0.000000
 41
0.000000
 66
  1
  0
VERTEX
  8
gg1
 10
0.660000
 20
0.352500
  0
VERTEX
  8
gg1
 10
0.660000
 20
0.367500
  0
SEQEND
  8
gg1
  0
POLYLINE
  8
gg1
 62
1
 40
0.000000
 41
0.000000
 66
  1
  0
VERTEX
  8
gg1
 10
0.652500
 20
0.390000
  0
VERTEX
  8
gg1
 10
0.667500
 20
0.390000
  0
SEQEND
  8
gg1
  0
POLYLINE
  8
gg1
 62
1
 40
0.000000
 41
0.000000
 66
  1
  0
VERTEX
  8
gg1
 10
0.660000
 20
0.382500
  0
VERTEX
  8
gg1
 10
0.660000
 20
0.397500
  0
SEQEND
  8
gg1
  0
POLYLINE
  8
gg1
 62
1
 40
0.000000
 41
0.000000
 66
  1
  0
VERTEX
  8
gg1
 10
0.752500
 20
0.390000
  0
VERTEX
  8
gg1
 10
0.767500
 20
0.390000
  0
SEQEND
  8
gg1
  0
POLYLINE
  8
gg1
 62
1
 40
0.000000
 41
0.000000
 66
  1
  0
VERTEX
  8
gg1
 10
0.760000
 20
0.382500
  0
VERTEX
  8
gg1
 10
0.760000
 20
0.397500
  0
SEQEND
  8
gg1
  0
POLYLINE
  8
gg1
 62
1
 40
0.000000
 41
0.000000
 66
  1
  0
VERTEX
  8
gg1
 10
0.752500
 20
0.360000
  0
VERTEX
  8
gg1
 10
0.767500
 20
0.360000
  0
SEQEND
  8
gg1
  0
POLYLINE
  8
gg1
 62
1
 40
0.000000
 41
0.000000
 66
  1
  0
VERTEX
  8
gg1
 10
0.760000
 20
0.352500
  0
VERTEX
  8
gg1
 10
0.760000
 20
0.367500
  0
SEQEND
  8
gg1
  0
POLYLINE
  8
gg1
 62
1
 40
0.000000
 41
0.000000
 66
  1
  0
VERTEX
  8
gg1
 10
0.697500
 20
0.335000
  0
VERTEX
  8
gg1
 10
0.712500
 20
0.335000
  0
SEQEND
  8
gg1
  0
POLYLINE
  8
gg1
 62
1
 40
0.000000
 41
0.000000
 66
  1
  0
VERTEX
  8
gg1
 10
0.705000
 20
0.327500
  0
VERTEX
  8
gg1
 10
0.705000
 20
0.342500
  0
SEQEND
  8
gg1
  0
POLYLINE
  8
gg1
 62
1
 40
0.000000
 41
0.000000
 66
  1
  0
VERTEX
  8
gg1
 10
0.867500
 20
0.065000
  0
VERTEX
  8
gg1
 10
0.882500
 20
0.065000
  0
SEQEND
  8
gg1
  0
POLYLINE
  8
gg1
 62
1
 40
0.000000
 41
0.000000
 66
  1
  0
VERTEX
  8
gg1
 10
0.875000
 20
0.057500
  0
VERTEX
  8
gg1
 10
0.875000
 20
0.072500
  0
SEQEND
  8
gg1
  0
POLYLINE
  8
gg1
 62
1
 40
0.000000
 41
0.000000
 66
  1
  0
VERTEX
  8
gg1
 10
0.867500
 20
0.100000
  0
VERTEX
  8
gg1
 10
0.882500
 20
0.100000
  0
SEQEND
  8
gg1
  0
POLYLINE
  8
gg1
 62
1
 40
0.000000
 41
0.000000
 66
  1
  0
VERTEX
  8
gg1
 10
0.875000
 20
0.092500
  0
VERTEX
  8
gg1
 10
0.875000
 20
0.107500
  0
SEQEND
  8
gg1
  0
POLYLINE
  8
gg1
 62
1
 40
0.000000
 41
0.000000
 66
  1
  0
VERTEX
  8
gg1
 10
0.167500
 20
0.340000
  0
VERTEX
  8
gg1
 10
0.182500
 20
0.340000
  0
SEQEND
  8
gg1
  0
POLYLINE
  8
gg1
 62
1
 40
0.000000
 41
0.000000
 66
  1
  0
VERTEX
  8
gg1
 10
0.175000
 20
0.332500
  0
VERTEX
  8
gg1
 10
0.175000
 20
0.347500
  0
SEQEND
  8
gg1
  0
POLYLINE
  8
gg1
 62
1
 40
0.000000
 41
0.000000
 66
  1
  0
VERTEX
  8
gg1
 10
0.147500
 20
0.375000
  0
VERTEX
  8
gg1
 10
0.162500
 20
0.375000
  0
SEQEND
  8
gg1
  0
POLYLINE
  8
gg1
 62
1
 40
0.000000
 41
0.000000
 66
  1
  0
VERTEX
  8
gg1
 10
0.155000
 20
0.367500
  0
VERTEX
  8
gg1
 10
0.155000
 20
0.382500
  0
SEQEND
  8
gg1
  0
POLYLINE
  8
gg1
 62
1
 40
0.000000
 41
0.000000
 66
  1
  0
VERTEX
  8
gg1
 10
0.237500
 20
0.308000
  0
VERTEX
  8
gg1
 10
0.252500
 20
0.308000
  0
SEQEND
  8
gg1
  0
POLYLINE
  8
gg1
 62
1
 40
0.000000
 41
0.000000
 66
  1
  0
VERTEX
  8
gg1
 10
0.245000
 20
0.300500
  0
VERTEX
  8
gg1
 10
0.245000
 20
0.315500
  0
SEQEND
  8
gg1
  0
POLYLINE
  8
gg1
 62
1
 40
0.000000
 41
0.000000
 66
  1
  0
VERTEX
  8
gg1
 10
0.430000
 20
0.387500
  0
VERTEX
  8
gg1
 10
0.445000
 20
0.387500
  0
SEQEND
  8
gg1
  0
POLYLINE
  8
gg1
 62
1
 40
0.000000
 41
0.000000
 66
  1
  0
VERTEX
  8
gg1
 10
0.437500
 20
0.380000
  0
VERTEX
  8
gg1
 10
0.437500
 20
0.395000
  0
SEQEND
  8
gg1
  0
POLYLINE
  8
gg1
 62
1
 40
0.000000
 41
0.000000
 66
  1
  0
VERTEX
  8
gg1
 10
0.430000
 20
0.322500
  0
VERTEX
  8
gg1
 10
0.445000
 20
0.322500
  0
SEQEND
  8
gg1
  0
POLYLINE
  8
gg1
 62
1
 40
0.000000
 41
0.000000
 66
  1
  0
VERTEX
  8
gg1
 10
0.437500
 20
0.315000
  0
VERTEX
  8
gg1
 10
0.437500
 20
0.330000
  0
SEQEND
  8
gg1
  0
POLYLINE
  8
gg1
 62
1
 40
0.000000
 41
0.000000
 66
  1
  0
VERTEX
  8
gg1
 10
0.365000
 20
0.322500
  0
VERTEX
  8
gg1
 10
0.380000
 20
0.322500
  0
SEQEND
  8
gg1
  0
POLYLINE
  8
gg1
 62
1
 40
0.000000
 41
0.000000
 66
  1
  0
VERTEX
  8
gg1
 10
0.372500
 20
0.315000
  0
VERTEX
  8
gg1
 10
0.372500
 20
0.330000
  0
SEQEND
  8
gg1
  0
POLYLINE
  8
gg1
 62
1
 40
0.000000
 41
0.000000
 66
  1
  0
VERTEX
  8
gg1
 10
0.365000
 20
0.387500
  0
VERTEX
  8
gg1
 10
0.380000
 20
0.387500
  0
SEQEND
  8
gg1
  0
POLYLINE
  8
gg1
 62
1
 40
0.000000
 41
0.000000
 66
  1
  0
VERTEX
  8
gg1
 10
0.372500
 20
0.380000
  0
VERTEX
  8
gg1
 10
0.372500
 20
0.395000
  0
SEQEND
  8
gg1
  0
POLYLINE
  8
gg1
 62
1
 40
0.000000
 41
0.000000
 66
  1
  0
VERTEX
  8
gg1
 10
0.397500
 20
0.355000
  0
VERTEX
  8
gg1
 10
0.412500
 20
0.355000
  0
SEQEND
  8
gg1
  0
POLYLINE
  8
gg1
 62
1
 40
0.000000
 41
0.000000
 66
  1
  0
VERTEX
  8
gg1
 10
0.405000
 20
0.347500
  0
VERTEX
  8
gg1
 10
0.405000
 20
0.362500
  0
SEQEND
  8
gg1
  0
POLYLINE
  8
gg1
 62
1
 40
0.000000
 41
0.000000
 66
  1
  0
VERTEX
  8
gg1
 10
0.430000
 20
0.355000
  0
VERTEX
  8
gg1
 10
0.445000
 20
0.355000
  0
SEQEND
  8
gg1
  0
POLYLINE
  8
gg1
 62
1
 40
0.000000
 41
0.000000
 66
  1
  0
VERTEX
  8
gg1
 10
0.437500
 20
0.347500
  0
VERTEX
  8
gg1
 10
0.437500
 20
0.362500
  0
SEQEND
  8
gg1
  0
POLYLINE
  8
gg1
 62
1
 40
0.000000
 41
0.000000
 66
  1
  0
VERTEX
  8
gg1
 10
0.397500
 20
0.387500
  0
VERTEX
  8
gg1
 10
0.412500
 20
0.387500
  0
SEQEND
  8
gg1
  0
POLYLINE
  8
gg1
 62
1
 40
0.000000
 41
0.000000
 66
  1
  0
VERTEX
  8
gg1
 10
0.405000
 20
0.380000
  0
VERTEX
  8
gg1
 10
0.405000
 20
0.395000
  0
SEQEND
  8
gg1
  0
POLYLINE
  8
gg1
 62
1
 40
0.000000
 41
0.000000
 66
  1
  0
VERTEX
  8
gg1
 10
0.365000
 20
0.355000
  0
VERTEX
  8
gg1
 10
0.380000
 20
0.355000
  0
SEQEND
  8
gg1
  0
POLYLINE
  8
gg1
 62
1
 40
0.000000
 41
0.000000
 66
  1
  0
VERTEX
  8
gg1
 10
0.372500
 20
0.347500
  0
VERTEX
  8
gg1
 10
0.372500
 20
0.362500
  0
SEQEND
  8
gg1
  0
POLYLINE
  8
gg1
 62
1
 40
0.000000
 41
0.000000
 66
  1
  0
VERTEX
  8
gg1
 10
0.397500
 20
0.322500
  0
VERTEX
  8
gg1
 10
0.412500
 20
0.322500
  0
SEQEND
  8
gg1
  0
POLYLINE
  8
gg1
 62
1
 40
0.000000
 41
0.000000
 66
  1
  0
VERTEX
  8
gg1
 10
0.405000
 20
0.315000
  0
VERTEX
  8
gg1
 10
0.405000
 20
0.330000
  0
SEQEND
  8
gg1
  0
ENDSEC
  0
EOF
